<?xml version="1.0" encoding="utf-8"?>
<!-- Generator: Adobe Illustrator 24.3.0, SVG Export Plug-In . SVG Version: 6.00 Build 0)  -->
<svg version="1.1" xmlns="http://www.w3.org/2000/svg" xmlns:xlink="http://www.w3.org/1999/xlink" x="0px" y="0px"
	 viewBox="0 0 503.1 546.2" style="enable-background:new 0 0 503.1 546.2;" xml:space="preserve">
<style type="text/css">
	.st0{fill:#470C2A;stroke:#B30D2B;stroke-width:0.75;stroke-miterlimit:10;}
	.st1{display:none;}
	.st2{display:inline;fill:#E43590;stroke:#E43590;stroke-miterlimit:10;}
	.st3{display:none;opacity:0.68;}
	.st4{fill:#902A63;stroke:#902A63;stroke-miterlimit:10;}
	.st5{fill:#BD4B8E;stroke:#902A63;stroke-miterlimit:10;}
	.st6{fill:#E8718A;stroke:#E56988;stroke-width:0.75;stroke-miterlimit:10;}
	.st7{fill:none;stroke:#000000;stroke-miterlimit:10;}
	.st8{fill:#EEBBC7;}
	.st9{fill:#EEBBC7;stroke:#EEBBC7;stroke-miterlimit:10;}
	.st10{fill:#DECED3;stroke:#DECED3;stroke-miterlimit:10;}
	.st11{fill:#831432;}
	.st12{fill:#831432;stroke:#831432;stroke-miterlimit:10;}
	.st13{fill:#F4899C;}
	.st14{fill:#120D11;stroke:#120D11;stroke-miterlimit:10;}
	.st15{fill:#B0365F;stroke:#B0365F;stroke-miterlimit:10;}
	.st16{fill:#E56A88;stroke:#E56988;stroke-width:2;stroke-miterlimit:10;}
	.st17{fill:#E8718A;stroke:#E8718A;stroke-width:0.75;stroke-miterlimit:10;}
	.st18{fill:#120D11;}
	.st19{fill:#E14949;stroke:#E14949;stroke-width:0.75;stroke-miterlimit:10;}
	.st20{fill:#120D11;stroke:#120D11;stroke-width:0.75;stroke-miterlimit:10;}
	.st21{fill:none;stroke:#120D11;stroke-miterlimit:10;}
	.st22{fill:#62408F;}
	.st23{fill:#484770;}
	.st24{fill:#484770;stroke:#484770;stroke-miterlimit:10;}
	.st25{fill:#484770;stroke:#484770;stroke-miterlimit:50;}
	.st26{fill:#120B11;}
	.st27{fill:#E56A88;stroke:#E56988;stroke-width:0.75;stroke-miterlimit:10;}
	.st28{fill:#140F13;stroke:#140F13;stroke-miterlimit:10;}
	.st29{fill:#332E51;}
	.st30{fill:#150F12;}
	.st31{fill:#F9C7DD;}
	.st32{fill:#B0365F;}
	.st33{opacity:0.52;fill:#CA455D;}
	.st34{fill:#BA2656;}
	.st35{fill:#E22062;}
	.st36{fill:#332E51;stroke:#332E51;stroke-width:0.5;stroke-miterlimit:10;}
	.st37{fill:#332E51;stroke:#332E51;stroke-width:0.5;stroke-miterlimit:50;}
</style>
<g id="Layer_37">
	<rect class="st0" width="503.1" height="546.2"/>
</g>
<g id="Layer_1_copy" class="st1">
	
		<image style="display:inline;overflow:visible;" width="1200" height="650" xlink:href="A4820B3B093BDA94.jpg"  transform="matrix(0.75 0 0 0.75 -216.2999 58.6596)">
	</image>
	<path class="st2" d="M275.7,152.3c0,0,6.6,38.1,2.2,52.5"/>
	<path class="st2" d="M290.1,116.9"/>
</g>
<g id="Layer_1" class="st3">
	
		<image style="display:inline;overflow:visible;" width="1200" height="650" xlink:href="A4820B3B093BDA95.jpg"  transform="matrix(0.75 0 0 0.75 -216.2999 58.6596)">
	</image>
	<path class="st2" d="M275.7,152.3c0,0,6.6,38.1,2.2,52.5"/>
	<path class="st2" d="M290.1,116.9"/>
</g>
<g id="skirt">
	<path class="st4" d="M318.5,480.1c0,0,25.3,33.4,40.7,71.2H226.6l-75.2-3.6l5.7-15.6c0,0,15.8-2.9,17.8-2.8s12.3-1.3,12.3-1.3
		l6.5,0.1c0,0,0.5-1.8,2-1.9c1.5-0.1,6.1,0.1,6.1,0.1s3.6-8.7,6.2-8c2.6,0.7,4.3,2.7,4.3,2.7l4.1-2.7l0.4-36.5L318.5,480.1z"/>
	<path class="st5" d="M329.8,497.4c0,0-21.6,15.8-40,18.3c0,0,5,5.2-6.7,11.2c-11.7,6-37.3,0-37.3,0s-10-1.1-12.8-0.3
		c-2.8,0.8-13.4-2.7-15.7-4.3c-2.3-1.6,0.8,8.8,6.1,11.9c5.3,3.1,6.8,6.7,6.8,6.7l-13.7-6.1l12,10.5l3.2,2.1l-34.9-10.5l-13.5,10.5
		l134.3,19.8l38.9-5.4l11.8-9.4L329.8,497.4"/>
	<path class="st6" d="M155.1,532.1c0,0-40.5,5.1-82.3,17.5l77.2,0.2L155.1,532.1z"/>
	<g>
		<g>
			<path d="M155.2,531.4c-8.1,1.2-16.2,2.5-24.3,3.9c-14.2,2.4-28.5,5-42.4,8.7c-5,1.3-10.6,2.7-15.1,5.5c-0.4,0.3-0.5,0.7-0.1,1.1
				c0.4,0.3,1.2,0.1,1.6-0.1c3.5-2.2,8.4-3.5,12.5-4.6c6.6-1.8,13.3-3.3,20-4.7c13-2.7,26-4.9,39.1-6.9c2.8-0.4,5.7-0.9,8.5-1.3
				c0.4-0.1,1.2-0.3,1.2-0.8C156.2,531.5,155.7,531.3,155.2,531.4L155.2,531.4z"/>
		</g>
	</g>
</g>
<g id="Layer_33">
	<g>
		<g>
			<path d="M326.5,494.1c2,2.8,4.1,5.6,6.1,8.4c0.5-0.4,1.1-0.7,1.6-1.1c-13.4,2.8-27,4.6-40.6,6c-6.9,0.7-13.8,1.3-20.8,1.6
				c-0.5,0-1.6,0.2-1.9,0.7c-0.3,0.5,0.3,0.6,0.7,0.6c19.5-1,39-3.4,58.1-6.9c1.3-0.2,2.6-0.5,3.9-0.8c0.3-0.1,2.1-0.5,1.6-1.1
				c-2-2.8-4.1-5.6-6.1-8.4C328.8,492.5,326,493.4,326.5,494.1L326.5,494.1z"/>
		</g>
	</g>
	<g>
		<path d="M330.6,502.6c2.7,5.9,5.4,11.8,8.1,17.7l4,8.9c1.3,3,2.6,5.9,3.7,9c-1.3-3-2.8-5.8-4.3-8.7l-4.6-8.5
			c-3.1-5.7-6.3-11.3-9.4-17L330.6,502.6z"/>
	</g>
	<g>
		<polygon points="322,503.8 343.5,551.9 319.3,505.1 		"/>
	</g>
	<g>
		<polygon points="310.4,506.1 321.5,533.6 308.5,506.9 		"/>
	</g>
	<g>
		<path d="M299.1,507.2l6.8,22.1l3.4,11.1c1.1,3.7,2.3,7.4,3.3,11.1c-1.2-3.7-2.5-7.3-3.8-10.9l-3.9-10.9l-7.8-21.8L299.1,507.2z"/>
	</g>
	<g>
		<path d="M292.6,532.8c0.9,2.3,1.5,4.6,1.9,7c0.1,1.2,0.2,2.4,0.4,3.6c0.2,1.2,0.4,2.4,0.6,3.6c0.5,2.4,0.7,4.8,0.7,7.2
			c0,2.4-0.3,5-1.5,7.1l-0.1,0c0.6-2.3,0.6-4.7,0.6-7.1c0-2.4-0.1-4.8-0.2-7.2c-0.1-1.2-0.2-2.4-0.4-3.6c-0.2-1.2-0.6-2.3-0.9-3.5
			C293.1,537.6,292.7,535.3,292.6,532.8L292.6,532.8z"/>
	</g>
	<g>
		<path d="M151.8,546.1c0.1-1.4,0.3-2.7,0.6-4.1c0.2-1.4,0.5-2.7,0.8-4c0.6-2.7,1.2-5.3,1.9-8l0.3-1l1,0c3-0.1,6,0.1,9,0.3
			c3,0.1,6,0,8.9-0.4c0.4-0.1,0.7-0.1,1.1-0.2c0.4-0.1,0.7-0.2,1-0.3c0.7-0.3,1.5-0.6,2.2-0.8c1.5-0.4,3-0.8,4.5-1
			c0.8-0.1,1.5-0.2,2.3-0.3l2.3-0.1l4.5-0.1l-0.4,0.1c0.7-0.2,1.5-0.5,2.1-0.8c0.3-0.1,0.7-0.3,1-0.4c0.1-0.1,0.3-0.1,0.3-0.2
			c0,0,0,0,0,0l0,0c0,0-0.1,0.1-0.2,0.2c0,0.1-0.1,0.1-0.1,0.2c0,0,0,0,0,0l0-0.1l0.1-0.1c0.1-0.1,0.1-0.2,0.2-0.3
			c0.1-0.2,0.3-0.3,0.5-0.4l0.2-0.1c0.1-0.1,0.3-0.1,0.4-0.2l0.3-0.1c0.2,0,0.3,0,0.4-0.1c0.3,0,0.5,0,0.7,0c0.5,0,0.9,0,1.3,0.1
			c0.8,0.1,1.6,0.2,2.5,0.3l-1.6,1c0.6-1.4,1.3-2.6,2-3.8c0.8-1.2,1.6-2.4,2.8-3.5c0.6-0.5,1.3-1,2.4-1.1c0.3,0,0.5,0,0.7,0.1
			c0.2,0,0.4,0.1,0.6,0.2c0.4,0.1,0.8,0.3,1.1,0.6c0.7,0.5,1.1,1.1,1.5,1.7l0.5,0.9c0.2,0.3,0.4,0.5,0.6,0.6v0.3
			c-0.5,0-0.8-0.3-1.1-0.5c-0.3-0.2-0.5-0.5-0.8-0.7c-0.5-0.5-1-0.9-1.5-1.1c-0.3-0.1-0.5-0.2-0.8-0.2c-0.1,0-0.3,0-0.4,0
			c-0.2,0-0.2,0-0.3,0c-0.3,0.1-0.7,0.4-1.1,0.9c-0.8,0.9-1.4,2.1-2,3.2c-0.6,1.2-1.1,2.4-1.5,3.6l-0.4,1.1l-1.2-0.1
			c-0.7-0.1-1.5-0.1-2.3-0.2c-0.4,0-0.7,0-1.1,0c-0.2,0-0.3,0-0.5,0c-0.1,0-0.1,0-0.1,0l0,0c0,0,0.1,0,0.1-0.1c0,0,0.1,0,0.1-0.1
			c0.1-0.1,0.3-0.2,0.4-0.3c0.1-0.1,0.1-0.1,0.1-0.2l0-0.1l0-0.1c0,0,0,0,0,0c-0.1,0.1-0.1,0.2-0.2,0.3c-0.1,0.1-0.2,0.2-0.2,0.3
			l-0.1,0.1c-0.1,0.1-0.2,0.2-0.3,0.2c-0.3,0.2-0.5,0.3-0.7,0.4c-0.4,0.2-0.8,0.4-1.2,0.5c-0.8,0.3-1.6,0.5-2.4,0.7l-0.2,0.1l-0.2,0
			l-4.5-0.1l-2.2-0.1l-2.2,0c-1.5,0-2.9,0.1-4.4,0.2c-0.7,0.1-1.4,0.2-2.1,0.4l-0.6,0.1l-0.6,0.1c-0.4,0.1-0.8,0.1-1.1,0.1l-4.5,0.4
			c-1.5,0.2-3,0.3-4.5,0.5c-3,0.4-6,0.9-9,0.9l1.3-1c-0.8,2.6-1.6,5.2-2.5,7.8c-0.5,1.3-0.9,2.6-1.4,3.8c-0.5,1.3-1,2.5-1.7,3.8
			L151.8,546.1z"/>
	</g>
	<path class="st7" d="M216.4,487.9c0,0,1.7,29.1-1.3,31.1"/>
	<g>
		<path d="M235.5,527.1c-0.9,0.2-1.8,0.2-2.7,0.2c-0.9-0.1-1.8-0.2-2.6-0.5c-0.8-0.3-1.6-0.8-2.5-1c-0.8-0.2-1.7-0.3-2.6-0.3
			c-0.9,0-1.8,0-2.7-0.2c-0.9-0.1-1.7-0.2-2.6-0.5c-0.8-0.2-1.7-0.5-2.5-0.9c-0.8-0.4-1.6-0.8-2.3-1.5l0.1-0.2
			c1.8,0,3.5,0.2,5.2,0.5c0.8,0.2,1.7,0.4,2.5,0.7c0.8,0.2,1.7,0.6,2.5,0.9c0.8,0.4,1.6,0.6,2.5,0.8c0.9,0.1,1.8,0,2.7,0
			c0.9,0,1.7,0.3,2.6,0.6c0.8,0.3,1.7,0.6,2.4,1.2L235.5,527.1z"/>
	</g>
	<g>
		<path d="M230,541.1c-2.5-0.7-4.9-1.7-7.2-2.8c-2.3-1.1-4.6-2.3-6.8-3.7c2.5,0.7,4.9,1.7,7.2,2.8
			C225.5,538.5,227.8,539.6,230,541.1z"/>
	</g>
	<g>
		<path d="M208,533.5c5,1.8,9.8,3.9,14.6,6.3c2.4,1.2,4.8,2.3,7,3.9c1.1,0.8,2.1,1.7,3.1,2.7c0.9,1,1.8,2.1,2.2,3.4l-0.2,0.1
			c-1.8-1.9-4-3.2-6.2-4.6c-2.2-1.3-4.3-2.9-6.6-4.2c-2.3-1.3-4.6-2.6-6.9-3.8c-2.3-1.3-4.7-2.5-7-3.6L208,533.5z"/>
	</g>
	<g>
		<path d="M245.3,520.2c-1.8,0.4-3.7,0.6-5.6,0.9c-1.9,0.2-3.7,0.4-5.6,0.6c-1.9,0.2-3.8,0.4-5.7,0.2l-1.4-0.2
			c-0.5-0.1-1-0.2-1.4-0.3c-0.5-0.1-0.9-0.3-1.4-0.5c-0.5-0.2-0.9-0.5-1.3-0.7l0.1-0.2c1.9,0,3.7,0,5.6-0.1c1.8-0.1,3.7,0.2,5.5,0.2
			c1.9,0,3.7,0,5.6,0c1.9,0,3.7-0.1,5.6-0.1L245.3,520.2z"/>
	</g>
</g>
<g id="Sunday">
	<g id="Layer_25">
		<path class="st6" d="M101.4,349.3c0,0,1.7,33.5,14.3,51.2l7.2,8.1l10.3,1.7l6.8-13l6.9-17.5c0,0,2.7-11.8,2.6-17.8
			c-0.1-6,1-49.5,1-49.5l-39.2-4.8l-8,12.4L101.4,349.3z"/>
	</g>
	<g>
		<g>
			<path d="M135.7,408.8c2.9-4.7,5.7-9.6,8.2-14.5c1.4-2.9,2.6-5.7,3.3-8.8c1-4.1,1.9-8.3,2.7-12.4c0.5-2.4,1-4.8,1.1-7.3
				c0.1-1.9,0.1-3.7,0.2-5.6c0.3-7.2,0.6-14.5,0.9-21.7c0.3-8.2,0.7-16.5,0.9-24.7c0-0.2-1.4,0-1.4,0.4c-0.4,14.7-1.1,29.4-1.7,44.1
				c-0.2,4.2-0.2,8.3-0.9,12.4c-0.8,4.2-1.7,8.3-2.6,12.4c-0.7,3.1-1.5,6.1-2.8,9.1c-2.7,5.8-5.9,11.4-9.3,16.9
				C134.2,409.2,135.5,409.1,135.7,408.8L135.7,408.8z"/>
		</g>
	</g>
	<g id="Layer_26">
		<g>
			<path class="st8" d="M147,324.2c0,0-0.5-1.1-2.3,4.4c0,0-0.7,30.4-0.7,33.8s1.2-4.2,1.2-4.2S147.8,337.5,147,324.2z"/>
			<g>
				<path class="st8" d="M147.7,324c-0.2-0.5-0.9-0.4-1.4-0.2c-1,0.5-1.4,2.1-1.8,3.1c-0.3,0.8-0.6,1.5-0.6,2.4c0,0.8,0,1.6-0.1,2.4
					c-0.1,6.4-0.3,12.7-0.4,19.1c-0.1,2.9-0.1,5.9-0.2,8.8c0,0.8-0.5,4.2,0.5,4.3c1.1,0.2,1.3-1.2,1.4-2c0.2-1.2,0.4-2.3,0.6-3.5
					c0.2-1.5,0.4-3.1,0.5-4.6C147.4,343.9,148.2,333.9,147.7,324c0-0.6-1.5-0.2-1.4,0.4c0.5,8.4-0.2,16.9-0.9,25.3
					c-0.4,3.9-0.7,7.7-1.4,11.5c-0.1,0.5-0.2,1-0.3,1.5c0,0.1-0.1,0.4-0.1,0.5c0,0,0,0,0,0c-0.2,0.4,0.2,0.4,1.3-0.1
					c0,0,0-0.3,0-0.3c0.1-0.6,0-1.3,0-1.9c0-2.2,0.1-4.4,0.1-6.7c0.1-6.1,0.3-12.2,0.4-18.4c0-2.2,0.1-4.4,0.1-6.6
					c0-0.8,0.2-1.2,0.5-2c0.3-0.9,0.8-1.7,1.1-2.5c0.2-0.4,0.5-0.2-0.2-0.3c-0.5,0-0.4,0.1-0.5-0.1
					C146.5,324.9,147.9,324.5,147.7,324z"/>
			</g>
		</g>
		<g>
			<g>
				<path class="st8" d="M137.1,332.4c0.4,4.9,0.5,9.9,0,14.8c-0.1,0.9,2.8,0.3,2.9-0.5c0.5-5,0.4-10.1,0-15.1
					C140,331,137,331.5,137.1,332.4L137.1,332.4z"/>
			</g>
		</g>
		<g>
			<g>
				<path class="st8" d="M150.5,318.5c-0.4,11.4-0.8,22.7-1.2,34.1c-0.2,5.2-0.3,10.3-0.7,15.5c-0.2,3-1,5.9-1.6,8.8
					c-0.4,2-0.8,3.9-1.3,5.8c-1.3,4.9-2.9,9.9-5.2,14.4c-1.5,2.9-3.5,5.6-5.1,8.4c-0.9,1.5-1.7,3-2.5,4.6c-0.4,0.7,1.1,0.7,1.4,0.1
					c2.1-4,4.6-7.7,6.9-11.5c2.4-4,3.8-8.5,5.1-12.9c1.7-5.6,3-11.5,3.8-17.3c0.6-4.3,0.5-8.9,0.6-13.2c0.3-7.6,0.6-15.2,0.8-22.8
					c0.2-4.7,0.3-9.4,0.5-14.1C152,317.7,150.5,317.9,150.5,318.5L150.5,318.5z"/>
			</g>
		</g>
		<path class="st9" d="M117,402.7c0,0-8.1-7.4-9.9-20.2c0,0,6.1,14.2,12.2,18.5L117,402.7"/>
		<path class="st9" d="M117,400.6l2.3,0.5l1.5-0.3c0,0-5.7,0.4-5.2-29.5c0.5-29.8,2.7-6.4,2.7-6.4s0.7,32,6.5,38.5l2.9-0.9
			c2,0.6,6.2-24.9,7.3-38.2c0.9-10.5,2.8-6.5,2.8-6.5s-1.9,39.6-6.1,44.9c0,0,1.8,1,3.2-0.9c1.4-1.9,15.8-35.7,14.5-46.3l-0.3,10.8
			l-2.7,14.4l-5,14.9l-6.9,12.3l-16.3-2.7L117,400.6z"/>
	</g>
</g>
<g id="Whip">
	<path class="st10" d="M111.4,281.3c0,0-3.7,2.3-5,4.2c0,0,0.9,6.1,2.5,7.6c0,0-3.6,5.7-3.3,7.8c0,0-6.4-0.8-7.9,1.2
		s0.1,6.8,0.1,6.8l-1,2.9l-6.1,7.3c0,0,0,6.6,0.7,6.9c0.7,0.3,8.3,6.1,8.3,6.1s-0.3,10.1-1.2,10.5s-0.2,8.4,1.3,9.2l-0.1,24.6
		l-2.2,2.8l-0.4,2.2l2.1,4.8l2.5,1.4h2l1.6-1.8l0.3-2.3l-1.5-4.6l-0.6-4.7l-1.4-7.3l-0.6-13.3c0,0,4.9-5.6,4.8-6.6
		c-0.1-1,0.7-7.5,0.7-7.5l-0.8-3.1l-1.6-1.9l-0.4-3.4l0.4-3l1.4-2.6l0.9-6.9l0.8-3.7l1.6-2.2l1.4,0l1.6,0.7l1.6,1.5
		c0,0,0.4,1.8,3.1,0.7c2.7-1.1,1.9,0.1,1.9,0.1l2.2,4.1c0,0-0.5,9.3,2.1,10.1c2.7,0.8,6-3,6-3v-5.7l-1.2-2.2l0.7-2.5l1.9-1.3
		l4.8-0.6l2.2-2.6l2.7,0.1l1.1,0.7c0,0,2.4,2.2,4.7,0.9c2.2-1.3,1.7-0.9,1.7-0.9l2.2,0.7l1.7,2.2l1.1,2.1c0,0,2.7-1.5,2.6-3.3
		c-0.1-1.7-3.4-6.1-3.4-6.1l-2.8-3.6l4.1-14.3l-16.7-3.7c0,0-1.2-5.6-3.7-6.5c-2.5-1-5-0.4-5-0.4L111.4,281.3z"/>
</g>
<g id="whip_outline">
	<g>
		<g>
			<path d="M139.5,286.7c0.2,0.1-0.1-0.1-0.2-0.1c-0.3-0.2-0.6-0.4-0.9-0.6c-1-0.8-1.9-1.8-2.6-2.8c-0.5-0.7-1-1.5-1.5-2.2
				c-0.3-0.6-0.6-1.2-1-1.7c-0.4-0.5-1.1-0.8-1.7-0.9c-1.7-0.1-3.2,1.2-4.4,2.2c-1.8,1.6-3.4,3.3-5,5c-1.5,1.5-3.3,3.6-5.4,4
				c-0.9,0.2-0.6,1.2,0.3,1c1.7-0.3,3.2-1.6,4.5-2.8c1.7-1.6,3.3-3.3,4.9-4.9c1.2-1.2,2.7-2.9,4.3-3.3c0.6-0.1,1,0.1,1.3,0.5
				c1,1.3,1.6,2.9,2.6,4.2c1,1.3,2.3,2.8,3.9,3.5C139.3,288,140.4,287.1,139.5,286.7L139.5,286.7z"/>
		</g>
	</g>
	<path class="st7" d="M113.1,280.7c0,0-6.9,3.6-7.5,5.5c-0.6,2,2.1,5.2,2.1,5.2s0.3,2.9,0,3.8c-0.3,0.9-3,3.7-3,3.7
		s-0.6,1.9,1.9,4.6"/>
	<g>
		<g>
			<path d="M104.2,299.2c-2.9,0.1-7.4,1.1-7.9,4.6c-0.3,2,0,4,0.5,5.9c0-0.1,0,0,0,0.1c0,0.3-0.1,0.6-0.2,0.9
				c-0.7,1.5-2.3,2.3-3.5,3.3c-2.2,1.9-4.2,4.8-3.9,7.8c0.2,3,2.8,5,5,6.6c1.1,0.8,2.3,1.6,3.4,2.3c0.6,0.4,1.5,0.9,1.5,1.6
				c0.1,0.9-0.3,2.1-0.5,3c-0.3,1.3-0.5,2.5-0.8,3.7c-0.4,1.6-0.8,2.9-0.9,4.6c-0.1,2.2-0.1,4.5,0.5,6.6c0.4,1.4,1.6,2.2,2.7,2.9
				c1.9,1.2,3.2-0.4,4.4-1.7c1.3-1.5,3.1-3.6,3.4-5.7c0.2-1-0.1-2.1-0.2-3c-0.2-1.5-0.4-3-0.6-4.4c-0.4-2.4-1.4-4.7-1.7-7.1
				c-0.3-1.8,1-3,1.3-4.7c0.4-1.8,0.7-3.7,1-5.5c0.1-0.7,0.2-1.5,0.4-2.2c0.1-0.3,0-0.1,0-0.2c0.1-0.3,0.3-0.5,0.4-0.8
				c0.5-0.9,0.9-1.9,1.5-2.8c0.2-0.4,0.6-0.8,0.8-1.2c0,0,0.1-0.1,0.2-0.2c0,0,0,0,0.1,0c0.2-0.1,0-0.1-0.4,0c0,0,0.5,0.5,0.5,0.6
				c0.7,0.9,1.2,2,2,2.8c0.8,0.7,1.6,0.6,2.6,0.2c1-0.3,1.9-0.7,2.8-1.1c-0.3,0-0.7-0.1-1-0.1c0.8,1.2,1.9,3.1,3.3,3.5
				c-0.1-0.1-0.2-0.3-0.3-0.4c-0.6,2.5-0.9,5.2-0.6,7.7c0.2,1.5,0.8,3.2,2.2,4c1.5,0.9,3.6,0.9,5.2,0.1c2.6-1.3,3.4-4.5,3.1-7.2
				c-0.1-1.1-0.5-2.2-0.7-3.3c-0.1-0.4-0.2-0.8-0.2-1.2c-0.1-0.4,0-0.9-0.1-1.3c0-0.1,0-0.3,0-0.4c0.1,0.5-0.2,0.4,0.1,0.1
				c0.9-0.8,1.3-1.9,2.7-1.7c1.2,0.1,2.5-0.3,3.6-0.8c1.5-0.6,2.4-1.6,3.5-2.7c-0.4,0.1-0.8,0.1-1.2,0.2c1.4,1.1,3.1,2.2,4.9,2.5
				c1.9,0.3,4.3-0.6,5.9-1.7c-0.3,0-0.7,0.1-1,0.1c0.8,0.8,1.7,1.6,2.5,2.4c0.3,0.3,0-0.1,0,0c0.1,0.3,0.2,0.6,0.2,0.9
				c0.1,0.5,0.3,1.1,0.4,1.6c0.1,0.3,0.4,0.4,0.7,0.4c4.1-0.2,6.6-4.6,4.3-8.2c-1.2-1.9-4-2.7-4.6-5c-0.6-2.2,0.6-5.1,1.1-7.2
				c0.5-2,1.8-5.1,0.8-7.2c-0.3-0.6-1.7-0.1-1.3,0.6c0.3,0.7,0.1,1.7,0,2.4c-0.2,1.1-0.5,2.2-0.8,3.4c-0.6,2.2-1.4,4.5-1.5,6.8
				c-0.1,2,1,3.3,2.5,4.5c2,1.6,3.7,3.4,2.9,6.1c-0.4,1.6-1.8,2.5-3.4,2.6c0.2,0.1,0.4,0.2,0.7,0.4c-0.2-0.9-0.3-2.1-0.9-2.9
				c-0.7-0.9-1.7-1.7-2.6-2.5c-0.3-0.3-0.8-0.1-1,0.1c-1.4,1-3.5,1.7-5.1,1.1c-1.3-0.4-2.5-1.2-3.6-2.1c-0.3-0.3-0.9-0.1-1.2,0.2
				c-0.5,0.5-1,0.9-1.5,1.4c-0.4,0.4-0.2,0.2-0.1,0.1c-0.3,0.2-0.6,0.3-0.9,0.5c-1,0.5-2,0.9-3.1,0.7c-0.9-0.1-1.6,0.1-2.4,0.6
				c-0.9,0.6-2.2,1.7-2.1,2.9c0.1,1.2,0.3,2.4,0.6,3.6c0.5,2.1,0.8,4.1-0.1,6.2c-0.7,1.7-2.3,2.6-4.2,2.3c-1.6-0.3-2.4-1.7-2.7-3.2
				c-0.6-2.6-0.2-5.6,0.5-8.1c0.1-0.2-0.2-0.4-0.3-0.4c-1.2-0.4-2.2-2.2-2.8-3.2c-0.2-0.3-0.7-0.2-1-0.1c-0.9,0.4-1.9,0.9-2.9,1
				c-1,0.2-1.6-1.4-2.1-2.2c-0.9-1.4-2-2.2-3.4-0.7c-1.1,1.3-2,3.1-2.7,4.8c-0.4,1-0.5,2.1-0.7,3.1c-0.3,1.7-0.6,3.5-1,5.2
				c-0.1,0.4-0.3,0.9-0.6,1.5c-0.4,1-0.8,1.8-0.7,2.9c0.1,2.1,1.1,4.2,1.5,6.2c0.5,2.6,0.9,5.3,1,7.9c0.1,2.1-1.7,4.1-2.9,5.6
				c-0.3,0.4-1.3,1.8-1.8,1.9c-0.4,0.1-1.4-1-1.8-1.2c-1.4-1-1.4-2.9-1.5-4.5c-0.1-1.8-0.3-4,0.2-5.8c0.5-1.8,1-3.5,1.4-5.4
				c0.3-1.3,1.1-3.5,0.1-4.6c-0.6-0.7-1.6-1.2-2.4-1.8c-1.1-0.8-2.3-1.5-3.4-2.3c-1.2-0.9-2.5-2-3.2-3.3c-0.9-1.5-0.8-3.3-0.2-4.8
				c0.6-1.5,1.6-2.9,2.8-4c1.1-1.1,2.6-1.8,3.6-3.1c0.4-0.6,0.8-1.2,0.9-2c0-0.2,0-0.4-0.1-0.5c0-0.2-0.1-0.2-0.1-0.1
				c-0.2-0.6-0.3-1.3-0.4-2c-0.1-1.3-0.4-3.1,0.2-4.3c0.8-1.7,3.2-2.2,4.9-2.4c0.4-0.1,0.8-0.1,1.2-0.1
				C104.9,300.3,105.2,299.2,104.2,299.2L104.2,299.2z"/>
		</g>
	</g>
	<g>
		<path d="M133.1,290c-2,1.3-4,2.4-5.9,3.6c-1,0.6-2,1.2-2.9,1.8c-1,0.6-1.9,1.3-2.9,1.9c1.4-1.9,3.3-3.4,5.3-4.6
			c1-0.6,2-1.1,3.1-1.6C130.8,290.7,131.9,290.3,133.1,290z"/>
	</g>
	<g>
		<path d="M117.6,301.9c-0.4,0.7-0.9,1.3-1.5,1.8c-0.6,0.5-1.2,1-1.8,1.5c-0.7,0.4-1.4,0.8-2.2,1c-0.4,0.1-0.8,0.1-1.2,0.1
			c-0.4-0.1-0.8-0.3-1-0.7c0.7,0.4,1.4,0.2,2-0.1c0.6-0.3,1.3-0.7,1.9-1.1C115.1,303.5,116.3,302.6,117.6,301.9z"/>
	</g>
	<g>
		<path d="M136.4,302.9c-1.1,1.6-2.4,3.1-3.6,4.5l-1.9,2.2c-0.6,0.7-1.2,1.4-1.7,2.3c0.1-1,0.6-1.9,1.1-2.8c0.5-0.8,1.1-1.6,1.8-2.4
			C133.3,305.3,134.7,304,136.4,302.9z"/>
	</g>
	<g>
		<path d="M138.6,307.4c-0.5,0.5-0.9,0.8-1.5,0.9c-0.3,0-0.6,0-0.9,0.1c-0.3,0.1-0.5,0.3-0.7,0.5c-0.4,0.4-0.8,0.8-1.2,1.2
			c-0.4,0.3-0.8,0.6-1.2,1.1l-0.1,0c-0.2-0.7,0.1-1.4,0.5-1.8c0.5-0.4,1-0.8,1.6-0.9c0.3-0.1,0.6-0.1,0.8-0.3
			c0.2-0.2,0.5-0.4,0.7-0.6C137.3,307.3,137.9,307.2,138.6,307.4L138.6,307.4z"/>
	</g>
	<path class="st7" d="M100,332.3c0,0-0.5-4.6-1.1-5.6"/>
	<path class="st7" d="M99.2,351.5c0,0,0.9,23.1,0.4,24.5c-0.5,1.4-4.2,4-1.3,8.4c2.8,4.4,3.9,4,3.9,4s5.1-0.7,4.5-2.8"/>
	<g>
		<path d="M121.5,405c-1.9-3-3.2-6.3-4.3-9.6c-0.6-1.7-1-3.4-1.4-5.1c-0.4-1.7-0.7-3.4-1-5.2c-0.3-1.7-0.4-3.5-0.6-5.2
			c-0.1-1.8-0.2-3.5-0.1-5.3c0-3.5,0.5-7,1.3-10.4l0.2,0c-0.1,3.4-0.2,6.9,0.1,10.3c0.2,3.4,0.6,6.9,1.1,10.3
			c0.5,3.4,1.1,6.8,1.9,10.1c0.8,3.3,1.7,6.7,2.9,9.9L121.5,405z"/>
	</g>
	<g>
		<g>
			<path d="M116.7,404.8c-3.1-4.4-5.6-9.4-7.7-14.4c-2.1-4.9-3.8-10-4.9-15.2c-1-4.3-1.3-8.8-1.5-13.2c-0.1-3-0.2-6-0.2-9
				c0-0.3-0.7-0.2-0.7,0.1c-0.1,6.8,0.1,13.8,1.3,20.5c1.7,9.3,5.4,18.5,10,26.7c0.9,1.6,1.9,3.3,3,4.8
				C116.2,405.3,116.9,405.1,116.7,404.8L116.7,404.8z"/>
		</g>
	</g>
</g>
<g id="cherry">
	<g>
		<path class="st11" d="M104.6,249.4c1.5,0.1,2.9,0.2,4.4,0.5c0.7,0.1,1.5,0.3,2.2,0.6c0.8,0.3,1.5,0.6,2.4,1.3
			c0.2,0.2,0.3,0.3,0.5,0.5l0.4,0.4l0.7,0.8c0.5,0.6,0.9,1.1,1.3,1.7c0.8,1.1,1.6,2.3,2.4,3.6c0.7,1.2,1.4,2.5,1.9,3.9
			c0.5,1.4,0.8,2.9,0.8,4.3c0,2.8-0.5,5.6-1.2,8.3c0.4-2.7,0.6-5.5,0.2-8.2c-0.2-1.3-0.5-2.6-1.1-3.7c-0.6-1.2-1.4-2.3-2.2-3.4
			c-0.8-1.1-1.7-2.1-2.6-3.1c-0.5-0.5-0.9-1-1.4-1.4l-0.7-0.7l-0.4-0.3c-0.1-0.1-0.3-0.2-0.3-0.2c-0.2-0.2-0.8-0.3-1.4-0.5
			c-0.6-0.1-1.2-0.2-1.8-0.2c-1.3-0.1-2.6-0.1-3.9,0L104.6,249.4z"/>
	</g>
	<path class="st12" d="M120.2,272c0,0-9.9,1.3-8.4,10.4c1.5,9.1,6.6,5.9,6.6,5.9l11.8-9.9C130.2,278.5,131,270.9,120.2,272z"/>
	<g id="Layer_30">
		<path class="st13" d="M127.1,276.3c0,0,0.1-4-4-3.9c0,0-0.6,1.7,0,2.7s-0.7,2.8-3.4,3.1C119.7,278.3,123.3,281.5,127.1,276.3z"/>
	</g>
</g>
<g id="Layer_31">
</g>
<g id="Layer_14">
	<path class="st14" d="M205.4,325.4c0,0-35.1-6.8-45.6,19.6c0,0,8.3,21.3,10.1,27.9c0,0,2.2,11,2.2,19.4c0,0,1.7,10.5,2.8,12.4
		c1.1,1.9,4.5,14.8,4.5,14.8s2.6,8.2,5,10.7c2.4,2.5,34.2,8.1,34.2,8.1l4.8-36.2L205.9,357L205.4,325.4z"/>
</g>
<g id="Layer_19">
</g>
<g id="Layer_20">
	<path class="st15" d="M154.7,259.8l-14,3l-0.9,3l-2,0.8l-1.7,2.3l0.6,1.3l1.1,1.3l-0.5,1.4l-0.3,2.4l0.7,1.4l-0.6-0.5l-1.3,2.6
		l0.4,2.3c0,0,0.6,1.7,0.9,1.9c0.3,0.2,8,7.1,8,7.1h2.9l4,3.9l0.9,3.7l3.9,4.1l1.4,5l2.4,4.1l3.1,2.5l2.3,0.7l4.4-3.6l0.8-16.6
		l7.3-17l-6.4-12.4l-8.8-4.5H154.7z"/>
</g>
<g id="HAND">
	<path class="st6" d="M175.2,438.4l-12.9-3l-0.7-7.5l-1.5-3.5l-2.9-1.9l-5-1.1l-3.5-0.6H147l-6.9-8.5l-2-3.9l-2.2-0.8h-3.7l-2.9-0.7
		L122,405c0,0-3.3-2.5-3.7-2.4c-0.4,0.1-3.6,0.7-3.6,0.7l-1.4,2l-0.9,1.9l1.1,3.3l0.7,1.5l0.9,4l1.5,1.9l-1.9,2.2l-5,3.6l-1.8,1.8
		v3.9v2.8v1.3l-1.8,1.4v1.6v3.6v1.5v1.6l-3.3,1l-3.2,1.6l-7.4,4.5l-1.2,3.2l3.3,0.9l4.5-0.5l4.6-2.1l3.4-0.5l3.6,0.2l4.8,0.1
		l3.9-0.2l1.5,1.7l7.7,3.9c0,0,3.8,2.7,4.3,2.9c0.5,0.2,6.1,2.7,6.1,2.7l7.5-1l2.4-0.8l4.9,0.4l9.4,1.9l11.8,2.1L175.2,438.4z"/>
	<path class="st15" d="M174.9,438.4l-8.4-1.7c0,0-9.1,12.6-10,19.1c0,0-15.3-2.8-18.6-2.1c0,0-1.8,1.5,1.1,2.9c0,0-7.5,1.1-9.1,1.2
		l8.6,4.3c0,0,8.9-0.8,9.9-1.8l6.7,0.8l8.7,1.7l7.7,1.9L174.9,438.4z"/>
	<path class="st15" d="M113.7,404.1c0,0,2.4-0.6,3.4,0c0,0-1.4,4.6,1.2,5.8c2.6,1.2,9.9,2.3,9.9,2.3v5.9l-2.4-2.6l-4.8-0.6
		c0,0-3.7,1.8-3.1,6.4l-0.5,2.3l-3.7,1.4c0,0-0.7,7.8,0,8.8c0,0,4.2,3.3,4.9,3.5h-7.4v1.6c0,0-3.2,6.7,0.7,9.2c0,0,6.8,2,8.1,1.7
		l1.6,3.6l-2.8-2.3l-12.3-0.1c0,0-6.9,0.6-8.2,2.6l-4.1,0.2l-3-1l0.7-2.8l8.7-5.9l5.3-1.1v-8.2l1.8-1.4v-8l6.7-5.4l1.9-2.2l-1.5-1.9
		l-0.9-4l-1.8-4.8L113.7,404.1z"/>
</g>
<g id="STRAW">
	<path class="st7" d="M149.6,237.3c0,0,5.9,0,6.1,4C155.7,241.4,151.6,242,149.6,237.3z"/>
	<line class="st7" x1="136.4" y1="292.6" x2="149.6" y2="237.3"/>
	<line class="st7" x1="155.7" y1="241.4" x2="148.2" y2="271.9"/>
	<line class="st7" x1="142.6" y1="294.7" x2="146.4" y2="279.3"/>
	<line class="st16" x1="140.8" y1="294.6" x2="153.9" y2="242.9"/>
</g>
<g id="Layer_36">
	<path class="st17" d="M199.8,328.1c0,0-2.9-13.1-3-26.3c0,0-12.1-19.1-13.9-26s-3.3-11.2-3.9-14.9c0,0-0.7-1-1.6-1
		c-0.8-0.1-13.8-3.2-17.6-7.4l-4,0.2c0,0-14.1,3.8-16.4,4.4s-6.6,4.7-5.1,6.5c1.4,1.8,8.9-0.4,8.9-0.4l10.8-0.7c0,0,3.4-0.1,3.7-0.5
		c0.2-0.4,4.2-1.5,4.2-1.5s6.4,5.9,10.4,7.8s4.2,7.3,4.2,7.3l-4.8-2.8l-8.9-0.3c0,0-2.7-0.9-5.3-0.8c-2.1,0-4,1-4.6,0.5
		c-1.2-1-10-1-10-1l-0.1,2.3c0,0,0.1,5,8.2,5.9l7.6,1.5l3.1,2l1.5,3.4l2.5,2.9l0.5,7.1c0,0,2,7.7,4.4,9.2c0,0-5.7-3-6.9-4
		c0,0,1.1,10.3,3.2,12.1s3.7,2.3,3.7,2.3l2.2,6.7l1.5,8.2l0.8,8.4L199.8,328.1z"/>
</g>
<g id="Layer_21">
	<g>
		<g>
			<path class="st18" d="M146.3,253.8c-1.7,0.7-3.3,1.4-5,2.1c-0.9,0.4-1.9,0.8-2.8,1.2c0,0-0.6,0.2-0.6,0.2c0-0.1,0.9-0.1,0.3-0.1
				c-0.3,0-0.6,0.1-0.9,0.2c-1.1,0.2-2.9,0.2-3.8,1c-0.5,0.4-1,1.1-1.4,1.6c-0.8,1-1.7,2-2.5,3c-0.5,0.7-1.3,1.4-1.6,2.3
				c-0.2,0.5,1.3,0.2,1.5,0.1c1.6-0.6,3-1.2,4.4-2.1c-0.6,0.1-1.3,0.2-1.9,0.2c0.8,2.7,4.1,1.7,6.2,1.5c2-0.2,4.1-0.6,6-1.4
				c-0.4,0.1-0.7,0.1-1.1,0.2c2.7,0.1,5.5,0.4,8.2,0.3c1.6-0.1,3.2-0.1,4.7-0.4c1.5-0.3,2.9-1.5,4.1-2.3c0.4-0.3,0.2-0.4-0.1-0.5
				c-0.5-0.1-1.1,0.2-1.5,0.4c-1,0.6-2.1,1.3-3.1,1.9c0.4-0.1,0.9-0.3,1.3-0.4c-0.8,0.1-1.5,0.1-2.3,0.2c-0.5,0-1,0.1-1.5,0.1
				c-0.1,0-1.1,0.1-0.6,0.1c-1.7,0-3.3-0.1-5-0.2c-0.8,0-1.7-0.1-2.5-0.1c-0.2,0-0.4,0-0.7,0c-0.3,0-0.5,0.1-0.7,0.2
				c-0.1,0-0.7,0.3-0.5,0.2c0.2-0.1-0.1,0-0.2,0.1c-0.2,0-0.4,0.1-0.5,0.1c-0.5,0.1-1.1,0.3-1.6,0.4c-0.1,0-0.3,0.1-0.5,0.1
				c-0.2,0.1,0.6,0,0.4-0.1c-0.3-0.1-0.8,0.1-1.1,0.1c-1.1,0.1-2.3,0.3-3.4,0.3c-0.9,0-1.5-0.6-1.7-1.4c-0.2-0.6-1.7,0.1-1.9,0.2
				c-0.3,0.2-0.7,0.4-1,0.6c-0.4,0.3,0.3,0,0.1,0c-0.1,0-0.3,0.1-0.4,0.2c-0.7,0.3-1.5,0.6-2.2,0.9c0.5,0,1,0.1,1.5,0.1
				c0.6-1.4,1.9-2.6,2.8-3.7c0.8-1,1.6-1.9,2.5-2.9c-0.4,0.2-0.8,0.3-1.2,0.5c1.4-0.3,2.9-0.4,4.3-0.8c0.8-0.3,1.5-0.6,2.2-0.9
				c2.1-0.9,4.1-1.7,6.2-2.6C148.5,253.8,147.1,253.4,146.3,253.8L146.3,253.8z"/>
		</g>
	</g>
	<g>
		<g>
			<path class="st18" d="M156,263.7c1.3,0.9,2.7,1.8,4,2.8c0.4,0.3,0.9,0.6,1.3,0.9c0.3,0.2,0.5,0.4,0.8,0.5c0.3,0.1,0.7,0,1,0.1
				c0.9,0,1.8,0.1,2.7,0.1c0.3,0,0.8,0,1-0.3c0.2-0.2,0.2-0.4-0.1-0.4c-0.7,0-1.5-0.1-2.2-0.1c-0.4,0-0.9,0-1.3-0.1c0,0-0.2,0-0.2,0
				c0-0.1,0.3,0.2,0.1,0c-0.1-0.1-0.2-0.1-0.2-0.2c-1.3-0.9-2.5-1.7-3.8-2.6c-0.6-0.4-1.2-0.8-1.8-1.2c-0.3-0.2-0.7-0.1-0.9,0
				C156.3,263.2,155.7,263.5,156,263.7L156,263.7z"/>
		</g>
	</g>
	<g>
		<path class="st18" d="M162.7,267.7c0.5,0.4,0.6,0.9,0.8,1.3c0.1,0.2,0.1,0.4,0.1,0.6c0,0.2,0,0.4,0.1,0.7c-0.3,0-0.6-0.2-0.8-0.4
			c-0.2-0.2-0.3-0.5-0.4-0.7C162.4,268.8,162.4,268.2,162.7,267.7z"/>
	</g>
	<g>
		<path class="st18" d="M161.2,283.5c0.6,0.9,1.2,1.7,1.8,2.6c0.3,0.4,0.6,0.8,1,1.2c0.3,0.4,0.7,0.7,1,0.9l0.2,0.1l0.1,0.4
			c0.2,1,0.3,2,0.4,2.9c0.1,1,0.2,2,0.4,2.9c0.1,1,0.2,2,0.3,3c0.1,1,0.2,2,0.3,3l-0.1-0.4c0.7,1.1,1.5,2.3,2.3,3.4
			c0.8,1.1,1.7,2.1,2.7,3.1c1,1,2,1.9,3.1,2.7c1.1,0.8,2.3,1.5,3.6,2c-1.4-0.1-2.8-0.6-4.1-1.2c-1.3-0.7-2.5-1.5-3.6-2.4
			c-1.1-0.9-2.1-2-3.1-3.1c-0.9-1.1-1.8-2.3-2.6-3.5l-0.1-0.2l0-0.2c-0.1-1-0.2-2-0.2-3c-0.1-1-0.2-2-0.2-3c0-1-0.1-2-0.1-3
			c0-1-0.1-2-0.1-3l0.3,0.5c-0.6-0.4-0.9-0.9-1.2-1.3c-0.3-0.5-0.6-0.9-0.8-1.4C161.9,285.5,161.5,284.5,161.2,283.5z"/>
	</g>
	<g>
		<path class="st18" d="M148.9,266.7c1.3,0.6,2.7,1.1,4.1,1.6c0.7,0.2,1.4,0.4,2.1,0.6c0.7,0.1,1.4,0.3,2.2,0.1
			c-0.7,0.3-1.5,0.3-2.2,0.4c-0.8,0-1.5,0-2.3-0.1c-1.5-0.1-3-0.4-4.5-0.6L148.9,266.7z"/>
	</g>
	<g>
		<g>
			<path class="st18" d="M139.6,264.6c-1,0.7-2,1.5-2.9,2.3c-0.4,0.4-1,0.9-1.2,1.5c-0.1,0.3,0,0.6,0,0.9c0.1,1.5,0.2,3,0.4,4.5
				c0.1,0.5,0.1,1.1,0.4,1.6c0.1,0.3,0.4,0.6,0.6,0.8c0.8,1.1,1.5,2.2,2.3,3.3c0.2,0.3,1.6-0.1,1.4-0.5c-0.6-0.9-1.3-1.8-1.9-2.7
				c-0.5-0.7-1-1.3-1.1-2.2c-0.3-1.4-0.4-2.9-0.5-4.4c0-0.4-0.1-0.9-0.1-1.4c0-0.4,0.3-0.7,0.6-1c0.9-1,2.1-1.8,3.2-2.6
				c0.3-0.2,0.1-0.3-0.1-0.4C140.3,264.3,139.9,264.4,139.6,264.6L139.6,264.6z"/>
		</g>
	</g>
	<g>
		<g>
			<path class="st18" d="M136.3,275.2c-0.4,1.1-0.8,2.4-0.9,3.6c-0.1,1.3,0.3,2.6,0.7,3.8c0.1,0.2,0.1,0.4,0.2,0.6
				c0.2,0.3,0.5,0.5,0.8,0.8c0.6,0.6,1.1,1.1,1.7,1.7c0.2,0.2,0.8-0.1,0.7-0.3c-0.5-0.5-1.1-1.1-1.6-1.6c-0.3-0.3-0.6-0.5-0.8-0.8
				c-0.1-0.1-0.1-0.3-0.2-0.6c-0.4-1.2-0.8-2.6-0.7-3.8c0.1-1.2,0.4-2.4,0.9-3.5C137.1,274.9,136.3,275,136.3,275.2L136.3,275.2z"/>
		</g>
	</g>
	<g>
		<g>
			<path class="st18" d="M150.3,297.1c0.7,0.9,1.4,1.9,2.1,2.8c0.8,1.1,1.8,2.2,2.4,3.4c0.3,0.5,0.4,1.2,0.6,1.7
				c0.6,1.5,1.2,3,1.9,4.5c1.3,2.6,3.2,6.7,6.4,7.2c1.2,0.2,2.4,0.2,3.6,0.3c0.9,0.1,1.8,0.2,2.6,0.2c0.5,0,1.3,0,1.8,0.2
				c0.8,0.3,1.4,1.9,1.8,2.7c1.1,2,2.4,4.2,2.7,6.5c-0.2-1.6,0.2-3.4,0-5c-0.3-2-1.3-4-2.2-5.8c-0.4-0.8-0.9-1.6-1.3-2.4
				c-0.2-0.3-0.4-0.9-0.7-1.1c-0.2-0.1-0.7-0.1-0.9-0.1c-0.8-0.1-1.6-0.1-2.4-0.2c-1.5-0.1-3-0.3-4.6-0.4c-3-0.3-4.9-3.5-6.2-5.9
				c-0.8-1.6-1.6-3.2-2.2-4.8c-0.3-0.8-0.5-1.8-0.9-2.6c-0.5-1-1.4-1.9-2.1-2.9c-0.8-1.1-1.7-2.3-2.5-3.4c0,0.1,0,0.8,0,0.7
				c0,0.6,0,1.2,0,1.8c0,0.6,0,1.2,0,1.8C150.3,296.5,150.2,297,150.3,297.1L150.3,297.1z"/>
		</g>
	</g>
	<g>
		<g>
			<path class="st18" d="M165.8,314.6c0.7,0.5,1.5,1,2.2,1.6c0.5,0.3,0.9,0.7,1.4,1c0.2,0.1,0.4,0.3,0.4,0.3
				c0.6,0.7,0.9,1.9,1.2,2.7c0.7,1.8,1.3,3.7,1.8,5.6c1.6,6.5,1.5,13.6,1.3,20.3c0,0.5,1.4,0.1,1.5,0c8.2-3.6,16.4-7.1,24.6-10.7
				c1.2-0.5,2.3-1,3.5-1.5c0.2-0.1,0.8-0.3,0.7-0.6c-0.5-1.6-1.2-3.2-1.6-4.9c-0.5-2.1-0.8-4.1-1.2-6.2c-1.2-6.5-2.5-13.2-2.8-19.9
				c0-0.7,0.1-1.6-0.2-2.1c-0.3-0.5-0.8-1-1.2-1.5c-1.7-2.2-3.3-4.5-4.9-6.8c-2.2-3.3-4.4-6.6-6.2-10.1c-1.7-3.1-3.3-6.3-4.1-9.8
				c-0.9-3.6-0.9-7.3-1.6-10.9c-0.1-0.5-0.1-0.8-0.6-0.9c-0.5-0.1-1.8,0.2-1.8,0.8c0.7-0.3,1.3-0.5,2-0.8c-2.8-1.2-5.6-2.4-8.4-3.4
				c-2.4-0.9-4.8-1.8-7.1-2.7c-1-0.4-2.1-0.9-3.1-1.4c-0.4-0.2-1.3-0.6-1.6-1c-0.2-0.3-0.6-0.2-0.9-0.2c-2.5,0.3-5,0.7-7.5,1
				c-0.3,0-1.2,0.3-1.3,0.7c0,0.4,0.6,0.4,0.9,0.3c2.5-0.3,5-0.7,7.5-1c-0.3-0.1-0.6-0.1-0.9-0.2c0.5,0.9,2,1.3,2.9,1.7
				c1.9,0.8,3.8,1.6,5.7,2.3c2.4,0.9,4.8,1.7,7.2,2.7c1.6,0.7,3.3,1.4,4.9,2.1c0.5,0.2,1.9-0.1,2-0.8c0,0.2,0,0.2-0.4,0.5
				c-0.4,0.1-0.7,0.2-1.1,0.3c0,0,0,0,0,0c-0.2,0-0.4-0.1-0.6-0.1c-0.1-0.1,0-0.1,0,0c0,0.1,0.1,0.4,0.1,0.5c0.2,1,0.3,2,0.4,3
				c0.5,3.6,0.7,7.2,2,10.6c2.4,6.6,6.3,12.6,10.3,18.3c1.4,2.1,2.9,4.1,4.5,6.1c0.3,0.4,0.8,0.8,1,1.3c0.2,0.4,0,1.5,0,2.1
				c0.3,6.3,1.5,12.5,2.6,18.7c0.4,2.4,0.9,4.7,1.3,7.1c0.3,1.7,1.1,3.4,1.6,5.1c0.2-0.2,0.5-0.4,0.7-0.6
				c-8.2,3.6-16.4,7.1-24.6,10.7c-1.2,0.5-2.3,1-3.5,1.5c0.5,0,1,0,1.5,0c0.1-4.9,0.1-9.7-0.3-14.6c-0.3-3.5-1.1-6.9-2.3-10.2
				c-0.4-1-0.8-2.1-1.2-3.1c-0.1-0.3-0.3-0.8-0.5-1c-0.5-0.6-1.5-1-2.1-1.5c-0.6-0.4-1.3-0.9-1.9-1.3
				C167.3,313.4,165.4,314.3,165.8,314.6L165.8,314.6z"/>
		</g>
	</g>
	<g>
		<path class="st18" d="M144.3,283.2c0.7,0.4,1.4,0.9,2,1.3c0.6,0.4,1.3,0.9,1.9,1.2c0.1,0.1,0.3,0,0.1,0.1c0,0.1,0.1-0.1,0.1-0.3
			c0.1-0.3,0.2-0.7,0.3-1.1c0.2-0.8,0.3-1.5,0.4-2.3l0,0.1c0-0.7,0-1.4,0.1-2.1c0.2,0.7,0.4,1.3,0.6,2l0,0.1c0,0.8,0,1.6-0.1,2.4
			c-0.1,0.4-0.1,0.8-0.3,1.2c-0.1,0.1-0.1,0.2-0.2,0.3l-0.1,0.2c-0.1,0.1-0.1,0.1-0.2,0.2c-0.1,0.1-0.2,0.1-0.4,0.1
			c-0.2,0-0.2,0-0.3,0c-0.2,0-0.3-0.1-0.4-0.1c-0.8-0.4-1.4-1-2-1.5C145.3,284.5,144.7,283.9,144.3,283.2z"/>
	</g>
	<g>
		<g>
			<path class="st18" d="M146.6,286.4c0.1,0.4,0.3,0.9,0.4,1.3c0.2,0.8,0.4,1.5,0.3,2.3c0,0.1,0,0.3-0.1,0.4c0,0.1,0,0.1-0.1,0.2
				c0,0,0,0.1,0,0c0,0,0,0.1-0.1,0.1c0.1,0,0.2-0.1,0.4-0.2c-0.1,0,0.2,0,0.1,0c-0.1,0,0.2,0,0,0c0,0-0.1,0,0,0c0.1,0,0,0,0,0
				c-0.1,0-0.2,0-0.2,0c0,0-0.1,0-0.1,0c-0.1,0,0.1,0,0,0c-0.1,0-0.2,0-0.3-0.1c-0.2-0.1-0.4-0.1-0.6-0.2c-0.4-0.1-0.8-0.3-1.2-0.4
				c-0.5-0.2-1-0.4-1.5-0.7c-0.3-0.1-0.8,0-1,0.2c-0.2,0.1-0.4,0.3-0.2,0.5c1.3,0.6,2.6,1.2,4,1.5c0.8,0.1,2.1,0,2.3-0.9
				c0.2-0.7,0-1.6-0.2-2.4c-0.1-0.6-0.3-1.2-0.5-1.8C147.9,285.6,146.5,286,146.6,286.4L146.6,286.4z"/>
		</g>
	</g>
	<path class="st19" d="M149.6,237.3l-13.3,55.2c0,0,2.5,3.9,6.3,2.1l13.1-53.4C155.7,241.4,155.6,238.3,149.6,237.3z"/>
	<polygon class="st20" points="138.3,257.6 134.5,258.3 129.7,264.1 130.1,264.6 133.1,263.1 139.3,257.6 	"/>
	<path class="st21" d="M161.7,434.8l-0.7-9.5l-3.7-3.3c0,0-9.1-1.5-11.3-2.8"/>
	<g>
		<g>
			<path class="st18" d="M155,429.9c-2.5-2.9-4.9-5.9-7.3-8.8c-3.1-3.8-6.2-7.6-8.8-11.7c-0.5-0.7-1.2-1.3-2-1.5
				c-0.8-0.3-1.5-0.2-2.3-0.2c-1,0-1.9-0.2-2.8-0.5c-1.6-0.4-3.2-1-4.7-1.7c-2.4-1-4.7-2-7.1-2.9c-1.3-0.5-2.5-1.4-3.8-0.6
				c-2.4,1.4-5.2,3.6-4.7,6.7c0.3,1.9,1,3.8,1.9,5.5c0.7,1.2,1.6,2.7,3.1,3c0.4,0.1,1.6-0.5,1.2-0.6c-1.6-0.3-2.6-2.2-3.2-3.5
				c-0.8-1.6-1.4-3.3-1.6-5.1c-0.3-2.8,2.5-4.9,4.7-6.1c-0.4,0.1-0.8,0.2-1.2,0.3c2.9,1.2,5.7,2.4,8.6,3.5c2.8,1.1,5.7,2.5,8.8,2.6
				c1.3,0,2.4,0,3.4,1c0.3,0.3,0.5,0.7,0.7,1.1c0.7,1.2,1.6,2.3,2.4,3.4c2.6,3.4,5.3,6.8,8,10.1c1.8,2.2,3.6,4.4,5.5,6.6
				C153.8,430.7,155.2,430.2,155,429.9L155,429.9z"/>
		</g>
	</g>
	<g>
		<path class="st18" d="M134.5,424c-1-0.5-1.8-1.1-2.7-1.7c-0.9-0.6-1.7-1.3-2.5-1.9c-1.6-1.4-3.1-2.9-4.2-4.9l0.4,0.3
			c-1.1-0.3-2.2-0.5-3.3-0.5c-0.6,0-1.1,0-1.7,0.1c-0.5,0.1-1.1,0.3-1.3,0.5l0,0l0,0c-1.4,1.4-2.6,2.8-4,4.1
			c-1.4,1.3-2.8,2.6-4.2,3.8c-0.7,0.6-1.5,1.2-2.3,1.8l-0.3,0.2l-0.2,0.1c0,0-0.1,0.1-0.1,0c0.1,0,0.1-0.1,0.1-0.1
			c0.1-0.1,0-0.1,0,0c0,0.1-0.1,0.1-0.1,0.2c-0.1,0.4-0.2,0.8-0.2,1.3l-0.6,5.7l-0.2,0c-0.5-1.9-0.8-3.8-0.8-5.8c0-0.5,0-1,0.1-1.6
			c0-0.1,0-0.3,0.1-0.5c0-0.2,0.1-0.4,0.3-0.6c0.1-0.1,0.2-0.2,0.3-0.3c0.1,0,0,0,0.1-0.1l0.1-0.1l0.2-0.2c0.7-0.6,1.4-1.3,2.1-1.9
			c1.4-1.2,3-2.4,4.5-3.6c1.5-1.2,3.1-2.2,4.7-3.3l-0.1,0.1c0.6-0.6,1.3-0.6,1.8-0.7c0.6-0.1,1.2-0.1,1.8-0.1c1.2,0,2.3-0.1,3.5-0.1
			l0.2,0l0.3,0.3c0.7,0.7,1.4,1.4,2.1,2.2l2.1,2.2c1.4,1.5,2.9,3,4.2,4.7L134.5,424z"/>
	</g>
	<g>
		<g>
			<path class="st18" d="M105.9,442.2c-0.4-1.4-0.1-3.1,0.1-4.6c0.1-1.1,0.3-2.2,0.4-3.2c-0.1,0.1-0.3,0.2-0.4,0.4
				c1.2-0.5,2.2-1.5,3.2-2.2c1-0.8,2.3-1.6,3.2-2.5c0.5-0.5,0.6-1.4,0.9-2c0.5-1,1.2-1.9,2-2.7c0.5-0.5,1.1-1,1.8-1.3
				c0.2-0.1,0.4-0.2,0.6-0.3c0.1-0.1,0,0,0.1,0c0.1-0.2-0.1,0.2-0.2,0.1c0.1,0.1,0.6,0.1,0.8,0.1c0.4,0.1,0.7,0.2,1.1,0.3
				c0.5,0.2,1.1,0.4,1.6,0.7c0.6,0.3,1.4,0.7,1.9,1c0.4,0.3,1.7-0.3,1.4-0.5c-0.8-0.5-1.7-1-2.6-1.4c-1.2-0.5-3-1.3-4.4-0.9
				c-1.6,0.6-3.2,2-4.3,3.3c-0.5,0.6-0.9,1.3-1.2,2c-0.2,0.5-0.3,1.1-0.5,1.4c-0.2,0.2-0.6,0.5-0.8,0.6c-0.5,0.4-1,0.8-1.5,1.1
				c-1,0.7-1.9,1.5-2.9,2.2c-0.5,0.4-1,0.4-1.1,1.1c-0.2,1.2-0.3,2.5-0.5,3.8c-0.1,1.2-0.3,2.7,0,3.9
				C104.6,443.1,106,442.7,105.9,442.2L105.9,442.2z"/>
		</g>
	</g>
	<g>
		<path class="st18" d="M143.2,422.3c-1.3-1.3-2.3-2.7-3.2-4.3c-0.5-0.8-0.9-1.5-1.3-2.4c-0.3-0.8-0.7-1.7-0.6-2.6
			c0.2,0.9,0.7,1.6,1.2,2.4l1.4,2.3C141.5,419.1,142.4,420.6,143.2,422.3z"/>
	</g>
	<line class="st21" x1="117" y1="423.4" x2="117" y2="420.9"/>
	<g>
		<g>
			<path class="st18" d="M119,436.9c-1.4-0.2-2.9-0.4-4.3-0.6c-1.1-0.1-1.8-0.4-2.6,0.4c-2.1,1.9-4.2,3.7-6.4,5.6
				c0.2-0.1,0.5-0.2,0.7-0.3c-0.8,0.1-1.6,0.2-2.4,0.3c-0.7,0.1-1.6,0.1-2.3,0.4c-1.2,0.5-2.4,1.6-3.5,2.3c-1.9,1.3-3.9,2.6-5.9,3.8
				c-0.5,0.3-1.3,0.6-1.6,1c-0.5,0.6-0.7,1.6-1,2.3c0,0.1-0.1,0.3,0,0.4c1.5,1.6,4,2.2,6.2,2.1c2.3-0.2,4.5-1.2,6.6-2
				c0.9-0.3,2.1-0.6,2.9-1.1c0.3-0.2-0.8-0.1-0.2,0.1c0.4,0.1,1,0.1,1.4,0.1c1.8,0.1,3.7,0.5,5.5,0.4c2.2-0.1,4.4-0.3,6.6-0.5
				c0.8-0.1,1.2-1,0.2-0.9c-2,0.1-4,0.3-5.9,0.4c-0.3,0-0.5,0.1-0.8,0.1c0.3,0-0.3,0-0.4,0c-1.2-0.1-2.3-0.2-3.5-0.3
				c-0.9-0.1-1.8-0.2-2.8-0.2c-0.5,0-1,0.2-1.5,0.4c-2,0.8-4.1,1.6-6.2,2.3c-2.4,0.8-4.9,0.2-6.8-1.4c0.2,0.2-0.1,0.4,0.1,0
				c0.1-0.2,0.2-0.5,0.3-0.7c0.1-0.3,0.3-0.6,0.4-0.9c0.1-0.5,0.3-0.3-0.1-0.1c0.8-0.3,1.5-0.8,2.2-1.3c2.3-1.4,4.5-2.9,6.7-4.4
				c0.3-0.2,1.6-0.8,1.8-1.2c-0.1,0.1-0.8,0.2-0.1,0.1c0.6,0,1.2-0.2,1.8-0.2c0.9-0.1,2.1-0.1,2.9-0.6c0.6-0.4,1.2-1,1.7-1.5
				c1.6-1.4,3.3-2.9,4.9-4.3c-0.3,0.1-0.6,0.2-0.9,0.3c1.9,0.3,3.8,0.5,5.8,0.8C119.1,437.9,120,437,119,436.9L119,436.9z"/>
		</g>
	</g>
	<g>
		<path class="st18" d="M118.1,449.8c1.3,1.4,2.8,2.6,4.4,3.6c1.6,1.1,3.2,2,4.9,2.8c1.7,0.8,3.4,1.7,5.2,2.5
			c1.7,0.8,3.5,1.6,5.2,2.3l-0.3-0.1c1.7,0,3.4,0,5.1,0.1l5.1,0.2l-0.4,0.1l1.5-1l0.2-0.1l0.2,0c3.9,0.9,7.8,1.6,11.8,2.3
			c3.9,0.6,7.9,1.1,11.9,1.7l-0.8,0.6c0.6-4.5,1.3-9,2-13.5c0.3-2.2,0.7-4.5,1.1-6.7c0.4-2.2,0.8-4.5,1.2-6.7l0.8,1.2
			c-3.7-0.6-7.4-1.3-11.1-2.1c-1.8-0.4-3.7-0.9-5.5-1.3c-1.8-0.5-3.7-1-5.4-1.8l0.1-0.2c1.8,0.5,3.7,0.8,5.5,1.1
			c1.9,0.3,3.7,0.6,5.6,0.8l11.2,1.5l1,0.1l-0.2,1c-0.4,2.2-0.7,4.5-1.1,6.7c-0.4,2.2-0.8,4.5-1.2,6.7c-0.8,4.5-1.7,8.9-2.6,13.4
			l-0.2,0.7l-0.7-0.1c-3.9-0.8-7.8-1.7-11.7-2.5c-3.9-0.8-7.9-1.4-11.8-1.9l0.4-0.1l-1.4,1.1l-0.1,0.1l-0.2,0l-5.1,0.2
			c-1.7,0.1-3.4,0.1-5.1,0.1l-0.2,0l-0.1-0.1c-1.9-0.7-3.6-1.6-5.3-2.4c-1.7-0.9-3.4-1.8-5.1-2.8c-1.7-1-3.3-2.1-4.8-3.3
			c-1.5-1.3-2.9-2.6-3.9-4.3L118.1,449.8z"/>
	</g>
	<g>
		<path class="st18" d="M150.8,460.8c-0.8,0.1-1.5,0.1-2.2,0c-0.7-0.1-1.4-0.2-2-0.4c-0.7-0.2-1.3-0.5-1.9-0.8
			c-0.6-0.3-1.2-0.7-1.8-1.2l0-0.1l4,1.2L150.8,460.8L150.8,460.8z"/>
	</g>
	<path class="st14" d="M93.5,448.5c0,0-5.1,2.5-6.6,4.4C86.9,452.9,90.7,452,93.5,448.5z"/>
	<g>
		<g>
			<path class="st18" d="M118,413.5C118,413.5,118,413.5,118,413.5c0.2,0.2,0,0-0.1-0.1c-0.2-0.2-0.4-0.4-0.6-0.5
				c-0.3-0.3-0.6-0.5-0.8-0.8c0.2,0.3,0.1,0.1,0,0c0,0-0.1-0.1-0.1-0.1c-0.1-0.1-0.1-0.2-0.2-0.3c-0.1-0.1-0.1-0.2-0.2-0.3
				c-0.1-0.1-0.4-0.5-0.1-0.1c-0.1-0.2-0.3-0.4-0.5-0.6c-0.1-0.1-0.3-0.1-0.4,0c-0.1,0.2,0,0.4,0,0.6c0.1,0.3,0.2,0.6,0.4,0.9
				c0.9,1.3,2,2.4,3.2,3.3c0.1,0.1,0.3,0.1,0.4,0c0.1-0.2,0-0.5,0-0.6C118.8,414.4,118.5,413.9,118,413.5L118,413.5z"/>
		</g>
	</g>
	<g>
		<g>
			<path class="st18" d="M121.9,415c0.5-0.4,0.9-0.8,1.4-1.2c0.1-0.1,0.1-0.1,0.2-0.2c0.1-0.1,0.2-0.2,0.2-0.3
				c0-0.1-0.2-0.1-0.3-0.2c-0.2,0-0.4,0-0.5,0c-0.2,0-0.4,0.1-0.5,0.2c-0.5,0.4-0.9,0.8-1.4,1.2c-0.1,0.1-0.1,0.1-0.2,0.2
				c-0.1,0.1-0.2,0.2-0.2,0.3c0,0.1,0.2,0.1,0.3,0.2c0.2,0,0.4,0,0.5,0C121.5,415.2,121.7,415.1,121.9,415L121.9,415z"/>
		</g>
	</g>
</g>
<g id="THUMB">
	<polygon class="st17" points="152,273.5 140.8,271.3 141.5,275.2 146.4,279.3 153.9,277.4 	"/>
	<g>
		<g>
			<path class="st18" d="M173.1,273.7c-0.7-0.5-1.5-1.2-2.4-1.5c-0.6-0.2-1.5-0.1-2.2,0c-1.3,0-2.7,0.1-4,0.1c-0.5,0-1.1,0-1.6,0
				c-0.1,0-1,0-0.6,0c0.4,0-0.1,0-0.2-0.1c-0.2-0.1-0.4-0.1-0.7-0.2c-0.7-0.2-1.4-0.4-2-0.5c-0.7-0.2-1.5-0.6-2.3-0.4
				c-1,0.2-2.3,0.5-3.2,1c-0.4,0.2,0,0,0.1,0c-0.1,0-0.2,0-0.3-0.1c-0.5-0.1-1.1-0.2-1.6-0.3c-1.9-0.4-3.8-1-5.7-1.1
				c-1.7-0.1-3.8-0.8-5.3,0.4c-1,0.8-1.3,1.9-1,3.1c0.3,1.1,0.9,1.6,1.7,2.3c1.1,0.9,2.3,1.9,3.6,2.7c1,0.7,2.2,1.5,3.5,1.7
				c1.6,0.2,3.4,0.2,5,0.3c0.8,0,1.6,0.1,2.4,0.1c0.2,0,0.4,0,0.6,0c0,0-0.4-0.2-0.1,0c1.8,1.3,4,2.2,6,3.3c0.6,0.3,1.8-0.5,1.1-0.8
				c-1.7-0.9-3.3-1.8-5-2.8c-0.6-0.3-1.1-0.7-1.7-0.8c-1.2-0.2-2.5-0.1-3.7-0.2c-1.4-0.1-2.9,0-4.2-0.3c-1.3-0.3-2.5-1.3-3.6-2
				c-1.5-1.1-5.1-3.1-4-5.4c0.2-0.4,0.5-0.6,0.8-0.8c0,0,0.3-0.1,0.3-0.1c0.1,0.2-0.9,0-0.2,0.1c1.1,0.2,2.4,0.2,3.6,0.3
				c1.8,0.1,3.5,0.7,5.2,1.1c0.7,0.2,1.5,0.5,2.3,0.5c0.9,0,1.9-0.5,2.7-0.7c0.1,0,1.2-0.4,1.2-0.3c0,0.1-0.8-0.2-0.3,0
				c0.2,0.1,0.4,0.1,0.6,0.2c1.2,0.3,2.3,0.6,3.5,0.9c1.8,0.5,4,0.1,5.8,0c0.6,0,1.3,0,1.9,0c0.2,0,0.9,0.1,1.1,0
				c0.1,0-0.5-0.3-0.2,0c0.2,0.2,0.5,0.3,0.8,0.5c0.4,0.3,0.9,0.6,1.3,0.9C172.6,274.9,173.8,274.1,173.1,273.7L173.1,273.7z"/>
		</g>
	</g>
	<path class="st20" d="M149.8,272l-2.9-0.9c0,0-6.3-1.1-8.2-0.4c0,0,1.3,3.1,7.6,3.6C146.4,274.4,151.1,274.6,149.8,272z"/>
</g>
<g id="shirt">
	<path class="st22" d="M221.8,317c0,0-27.8,34.2-30.5,36.3c-2.7,2.1-6,20.7-2.7,29.3s4.4,18.6,4.4,18.6l2,21l2.6,63.5l19.1,4.1
		l30.7-17.1L221.8,317z"/>
	<path class="st22" d="M232.1,278.3c0,0-20.5,55.3-20.6,75.5c0,20.2,0,0,0,0s5,68.5,7.7,73.9c2.7,5.4,0,0,0,0"/>
	<g>
		<g>
			<path d="M213.2,326.2c-2.4,3.3-5,6.5-7.5,9.8c-4,5.1-8,10.2-12.5,14.9c-0.7,0.7-1.4,1.4-2.2,2.1c-0.1,0.1-0.6,0.4-0.4,0.3
				c-0.4,0.2-0.9,0.5-1.2,0.8c-1.8,1.8-2.3,5-2.7,7.4c-1.4,8.8-0.7,18.5,2,27c1.1,3.4,2.2,6.6,2.9,10.1c0.7,3.9,1.2,7.9,1.5,11.9
				c0.6,7.5,0.8,15,0.7,22.6c0,2.9-0.3,5.7-0.2,8.6c0.2,4,0.5,7.9,0.7,11.9c0.6,10.7,1.2,21.4,1.8,32c0,0.2,0,0.4,0,0.7
				c0.1,0.1,0.1,0.1,0.3,0.2c5.6,1.6,11.3,3.3,17.1,4c1.5,0.2,2.9,0.3,4.3-0.4c0.6-0.3,1.2-0.6,1.7-1c2.6-1.5,5.2-2.9,7.8-4.4
				c1.9-1.1,3.8-2.1,5.7-3.2c0.5-0.3,0.3-0.5-0.2-0.6c-0.6-0.1-1.5,0.2-2,0.5c-5.1,2.9-10.2,5.7-15.3,8.6c0.7-0.2,1.4-0.4,2-0.5
				c-3.8,0-7.8-1.2-11.5-2.1c-1.8-0.4-3.5-0.9-5.3-1.4c-0.5-0.1-1-0.3-1.5-0.4c-0.1,0-0.3-0.1-0.4-0.1c-0.3-0.1,0.1,0,0.1,0.1
				c-0.2-3.8-0.4-7.6-0.6-11.3c-0.4-7-0.8-14.1-1.2-21.1c-0.2-4.1-0.6-8.3-0.7-12.4c-0.1-4,0.2-8,0.2-12c0-8.7-0.3-17.4-1.5-26.1
				c-0.5-3.9-1.2-7.7-2.4-11.4c-0.7-2.2-1.6-4.4-2.1-6.6c-0.6-2.6-1.1-5.2-1.4-7.9c-0.5-4.9-0.6-9.9,0.1-14.8
				c0.2-1.8,0.6-3.7,1.2-5.5c0.3-1,0.8-2.2,1.7-2.8c-0.2,0.1,0.6-0.3,0.8-0.4c0.4-0.3,0.8-0.6,1.2-0.9c1-0.8,1.8-1.8,2.7-2.7
				c2.4-2.6,4.7-5.3,6.9-8.1c4-4.9,7.8-9.8,11.6-14.8c0.2-0.3,0.4-0.6,0.7-0.9c0.3-0.4-1.1-0.2-1.1-0.2
				C214.3,325.5,213.5,325.7,213.2,326.2L213.2,326.2z"/>
		</g>
	</g>
	<g>
		<path d="M150,238.2c0.2,0.5,0.6,0.9,1,1.2c0.4,0.3,0.8,0.6,1.2,0.8c0.9,0.5,1.9,0.8,2.9,1.2c-0.5,0.1-1.1,0.1-1.6,0
			c-0.5-0.1-1.1-0.3-1.6-0.5c-0.5-0.3-1-0.6-1.3-1.1C150.2,239.3,150,238.8,150,238.2z"/>
	</g>
</g>
<g id="Layer_15">
	<g>
		<path class="st23" d="M173.1,332.8c-1.5,1.4-3,2.9-4.4,4.3c-0.7,0.7-1.3,1.6-2.1,2.2c-0.8,0.6-1.7,1.1-2.8,1.5l-0.1-0.1
			c0.3-1.1,0.9-2.1,1.6-2.9c0.7-0.8,1.6-1.3,2.5-1.9c0.9-0.6,1.7-1.2,2.6-1.7c0.9-0.5,1.8-1.1,2.7-1.5L173.1,332.8z"/>
	</g>
	<g>
		<path class="st23" d="M204.2,328.7c-2.8,2.4-5.7,4.6-8.7,6.8c-3,2.2-6,4.3-9.3,6.2c-1.6,1-3.3,1.9-5.2,2.6c-1,0.4-1.9,0.5-2.8,0.7
			c-0.9,0.2-1.9,0.3-2.8,0.4c-3.8,0.3-7.6-0.2-11.2-1.4l0-0.3c1.9-0.3,3.7-0.4,5.5-0.6c1.8-0.2,3.6-0.4,5.3-0.7
			c0.9-0.1,1.8-0.3,2.6-0.5c0.9-0.2,1.8-0.3,2.5-0.5c1.6-0.4,3.3-1.1,4.9-1.9c3.3-1.6,6.4-3.4,9.6-5.3c3.2-1.9,6.3-3.8,9.4-5.8
			L204.2,328.7z"/>
	</g>
	<path class="st24" d="M203.6,331.1l0.6,6.4c0,0-4.4,5.4-7.6,6.7c0,0,4.3-4.9,5.4-7.4l-3.9,2.8C198.1,339.6,203,333.3,203.6,331.1z"
		/>
	<g>
		<path class="st23" d="M165.6,347.5c0.9,2.2,1.6,4.4,2.4,6.6c0.8,2.2,1.6,4.4,2.4,6.6c0.7,2.2,1.4,4.5,2.4,6.6
			c1,2.1,2.3,4.1,3.7,5.9l0.1,0.1l0,0.2c-0.1,2.5-0.1,5-0.2,7.5l-0.2,7.5l-0.3,7.5c-0.1,2.5-0.2,5-0.1,7.5l-0.2,0
			c-0.8-2.4-1.1-5-1.4-7.5c-0.2-2.5-0.3-5-0.2-7.6c0.1-2.5,0.3-5,0.5-7.5c0.2-2.5,0.6-5,1-7.5l0.1,0.3c-1.2-2.1-2.4-4.1-3.6-6.2
			c-1.2-2.1-2.4-4.1-3.4-6.3c-0.9-2.2-1.7-4.5-2.2-6.8c-0.6-2.3-1-4.6-1.1-7L165.6,347.5z"/>
	</g>
	<g>
		<path class="st23" d="M163.7,347.5c0.6,4.6,1.8,9,3.2,13.4c0.7,2.2,1.6,4.3,2.5,6.4c0.9,2.1,2,4.1,3.1,6.1l0.1,0.1l0,0.1
			c0.2,2.7,0.3,5.5,0.3,8.3c0,1.4,0.1,2.8,0.1,4.1c0,1.4,0,2.8,0.1,4.1l-0.1,0c-0.3-1.4-0.4-2.7-0.6-4.1c-0.1-1.4-0.3-2.7-0.4-4.1
			c-0.2-2.7-0.4-5.5-0.5-8.3l0.1,0.2c-2.1-4.1-3.9-8.4-5.3-12.8c-0.7-2.2-1.3-4.4-1.7-6.7C164.2,352,163.9,349.8,163.7,347.5
			L163.7,347.5z"/>
	</g>
	<path class="st25" d="M176.6,404.2c0,0,1.2,6.3,4,10.1c0,0,0.3,10.9,4.3,15.3l1.4,4.2h5.2l-4.4-3.4c0,0-0.4-6.9,0-8.8
		c0,0-1.4,3.2-1.5,5.2c0,0-1.9-4.4-0.6-13.2c0,0-1.8,5.7-2.1,8.5c0,0-0.3-8.3-0.6-9.1c-0.3-0.8-2.1-3.4-2.1-3.4s-2.1-6.6-1.7-10.1
		c0,0-1.1,4.5-0.1,9L176.6,404.2z"/>
</g>
<g id="Hair_Back">
	<path class="st26" d="M195.5,161.4c0,0,1.5,1,0.8,21.4c0,0-22.7,54.3-6.1,87.2c0,0,5.4,15.5,14.6,18.2c0,0,5.1,0.8,10.2,0.8
		c0,0,4.7,20.6-18.5,20.9h-4.2l5.7,9.4c0,0,13.5,9.3,19.4,5.9c5.9-3.5,16.3-41.6,16.3-41.6l11.8-2l4.6-13.7l-5.8-7.2l16.9-8.9
		l-3.3-1.5l-1.8-7.8c0,0,6.5-0.9,16.6-13.5l22.1-31.7c0,0,9.8,30,15.2,37.5c5.4,7.5,14.6,21.7,15.7,27c0,0-4.3,1.5-8.6,0
		c0,0,12.3,5.2,20.6-4.3c8.3-9.5,5.3-29.1,5.3-29.1s-19.1-70-25.3-84.5l-67.6-19.6l-53.2,2.4C197.1,126.5,188.4,154.9,195.5,161.4z"
		/>
</g>
<g id="JACKET">
	<path class="st23" d="M309,226.9c0,0-59.5,26.7-71.3,32.5c0,0,0.7,5,4.3,11.3l-1.3,8.3l-8.7-0.8c0,0-6.7,19.1-12.5,39.1
		c-4,13.8-7.5,27.9-8.1,36.4c0,0,1.4,55.6,17,132l6.3,30c0,0,32.8-8.4,49.5-16.3s35.6-17.6,35.6-17.6l10,15.6c0,0,12-4.1,26.6-20.4
		c0,0-9.7-16.2-10.1-21c-0.4-4.8-7.1-35.2-3.3-55.1c0,0,7.3-26.2,8.6-29.5c1.3-3.3,0.6-27.6-0.2-29.3c-0.8-1.7,5.6-9.8,5.6-9.8
		l-3.2-16.6l-7.6-1.6c0,0-19.8-54.4-21.2-58s-8.3-12.1-8.3-12.1L309,226.9z"/>
	<path class="st23" d="M222.5,427.4c0,0-22.1,6.8-42.9,1.8c-20.7-5,0,0,0,0s-2.9-2.2-10,12.8c-7.1,15,0,0,0,0s-4.8,19.8,4.3,24.8
		l63.9,2.2l-4.1-44.1L222.5,427.4"/>
	<g>
		<path class="st18" d="M227.6,425.4c-1.7,1-3.5,1.7-5.4,2.3c-1.8,0.6-3.7,1.1-5.7,1.4c-1,0.1-1.9,0.2-2.9,0.3
			c-1,0.1-1.9,0.1-2.9,0.3c-1,0.1-1.9,0.2-2.9,0.4c-0.5,0.1-1,0.2-1.4,0.3l-1.4,0.3c-1,0.2-1.9,0.4-2.9,0.5c-1,0.1-1.9,0.2-2.9,0.3
			c-1.9,0.1-3.9,0.3-5.8,0.2c-1-0.1-1.9-0.1-2.9-0.1c-1-0.1-1.9-0.2-2.9-0.4c-1-0.1-1.9-0.3-2.9-0.5c-0.9-0.2-1.9-0.5-2.8-0.8l0-0.2
			c3.9-0.2,7.7,0,11.5-0.1l1.4,0c0.5,0,1,0,1.4,0c1,0,1.9,0,2.9,0c1.9-0.1,3.8,0,5.7-0.1c1.9,0,3.8-0.2,5.7-0.5
			c1.9-0.4,3.7-1,5.6-1.5c0.9-0.3,1.9-0.5,2.8-0.7c0.9-0.2,1.9-0.4,2.8-0.6c1.9-0.4,3.8-0.7,5.7-1L227.6,425.4z"/>
	</g>
	<path class="st14" d="M245.5,281.5l-11.8-0.8c0,0-17.5,53.4-18.6,74.8l6.7,68.5l12.9-4.8c0,0,1.7-2.9,3.6-1.6c0,0-4.1-11,2.5-13.7
		c0,0,0.7-4.9,1.7-4.5c1,0.4-3.1-4.9,0-6.7l-2.9-11.9l2.9-12.1c0,0-2.1-12.6,0-36.6v-5.3C242.5,326.7,241,295.3,245.5,281.5z"/>
	<path class="st14" d="M242.1,300.4c0,0,7.5-28.1,24.8-40.7s0,0,0,0l0.1-11.6l-26.8,12.8c0,0,1.2,7.9,4.2,8.7l-3.6,14.4L242.1,300.4
		z"/>
</g>
<g id="Layer_35">
	<path class="st27" d="M351.3,347.2"/>
</g>
<g id="HAIR_BACK">
	<path class="st28" d="M328.4,265.5c-1.9,0.4-4.1,0.5-6.4,0.4c0,0,6.4,2.1,10.1,1.1c0,0-12.6,4.5-22-4.9c0,0,3.9,8,17.7,8.7
		c0,0-14.1,0.6-21.9-11.2c0,0,9.8,20.8,31.7,17.1l10.8-6.4c0,0,13.7-7.5,15.9-36.8c0,0-5.5-27.3-21.6-47.1c0,0-21.6-43.2-23.8-50.5
		s-8.9-18.3-8.9-18.3l-12.8,19.1L316,149l12.8,110.4l-1.3,3.5L328.4,265.5z"/>
	<path class="st28" d="M341.2,300.4c0,0-26.2-3.8-25.2-25.8c0,0,3.4,9.5,11.1,12.9c0,0-5.7-6.8-6.5-11.6c-0.8-4.8,5.7,16,25.6,3
		c0,0-13.8,7.1-20.1,0c0,0,12.6,0.6,13.6-8.2l19.3-17.4c0,0,11.9,16.3,0,39.4c0,0,9,15.1,24.5,8.8c0,0-0.2,2.9-5.9,5.9
		c0,0,4,0.6,7.3,0c0,0-4.2,14.7-23.2,9.5c0,0,8,16.4-7.7,26.3c0,0-9.4,4.6-17.4-3.1c0,0,9.7,2.7,13.8-1
		C350.4,339.3,344.9,310.6,341.2,300.4z"/>
	<g>
		<path class="st29" d="M325,188.7c3.6,5,6.4,10.3,8.8,15.8c2.4,5.5,4.5,11.2,6,17c0.4,1.5,0.7,2.9,1.1,4.4c0.3,1.5,0.6,3,0.9,4.5
			c0.5,3,0.9,6.1,1,9.2c0.1,3.1,0,6.2-0.7,9.3c-0.3,1.5-0.7,3.1-1.4,4.5c-0.6,1.5-1.6,2.8-2.7,3.8c1-2.9,1-5.7,0.7-8.6
			c-0.3-2.8-0.8-5.7-1.4-8.5c-0.6-2.8-1.3-5.6-2-8.4c-0.7-2.8-1.4-5.6-2.2-8.5c-1.5-5.6-3-11.3-4.4-17.1
			C327.2,200.5,325.9,194.7,325,188.7z"/>
	</g>
</g>
<g id="FACE">
	<path class="st27" d="M200.3,124.4l-3.1,31.4l1.6,1c0,0,0.6,10.6,2.1,12.9s3.8,6.5,6.1,7.8l0.6,1.9c0,0-0.8,14.7,0.5,18.7
		c1.3,4,3.2,10.3,12.7,21.4c9.4,11.1,10.4,13.9,10.4,13.9s1,5.6,3.8,6.6s9.7,2.2,14.9,0s4.2-1.7,4.2-1.7s3.5,8.9,3.9,12.1
		c0,0,22.6-7.4,24.7-11.7l24-10.6c0,0-10.2-22.2-10.6-31.4l-0.7-1.4c0,0,10.2-8.7,12-11.6c1.8-2.9,3.4-21.1,2.2-28.5
		c0,0,0.1-2.7-16.1,12.1l-13.5-0.5l-2.2-25.2l-29-24L200.3,124.4z"/>
</g>
<g id="Layer_34">
	<g>
		<path class="st29" d="M317.5,198.6c0.6,0.8,1.1,1.7,1.6,2.7c0.5,0.9,0.9,1.9,1.2,2.8c0.7,1.9,1.4,3.9,1.9,5.8c1.1,4,1.9,8,2.4,12
			c0.6,4.1,0.8,8.1,1.3,12.2l0.2,1.5l0.1,0.8l0,0.1l0,0l0,0c0.3,0-0.4,0.1-0.3,0l0,0l0-0.2l0-0.4l-0.4-3c-0.2-2-0.5-4.1-0.8-6.1l0,0
			l0,0c0.2-2.2,0.3-4.5,0.3-6.7c0-2.2-0.2-4.5-0.5-6.7l0.9-0.2c1.8,6.1,3.4,12.3,4.8,18.6c0.7,3.1,1.3,6.3,1.7,9.5
			c0.5,3.2,0.8,6.4,0.8,9.6l-0.1,0c-0.2-3.2-0.7-6.3-1.3-9.5c-0.6-3.1-1.3-6.3-2-9.4c-0.7-3.1-1.5-6.2-2.3-9.3
			c-0.8-3.1-1.6-6.2-2.5-9.3l0.9-0.2c0.5,4.5,0.4,9-0.2,13.5l0-0.1c0.2,2,0.4,4.1,0.6,6.1l0.3,3l0,0.4l0,0.2l0,0
			c0.1,0-0.6,0.1-0.3,0l0,0l0,0l0-0.1l-0.1-0.8l-0.2-1.5c-0.5-4.1-1.1-8.1-1.8-12.1c-0.7-4-1.3-8-2.4-12c-0.5-2-1-3.9-1.7-5.9
			C319.2,202.4,318.5,200.4,317.5,198.6L317.5,198.6z"/>
	</g>
</g>
<g id="FACE_DETAILS">
	<path class="st30" d="M263.3,162.8c2.1-0.9,5.6-3.1,5.6-3.1c-2,3.2-8.9,12.3-8.9,12.3c-9.1,1.1-15.1,3.3-15.1,3.3l1.4-1.8l-0.7-3.3
		c0,0-2.1,2-2.2,3.3c0,0,0.1-2,0.9-4.1c0,0-1.5,1.1-2.1,2.5c0,0,0.9-3.8,2.9-5.5c0,0-1.8,0.4-2.2,1.1c0,0,1.6-4.4,7.4-6.6
		c0,0-6.9-0.4-10.5,7.4c0,0,1.2-9.1,17.7-9.3c0,0-1.3,0.7-2.2,1.3c-1,0.5,3.3-1.3,3.3-1.3s-0.2,1.4-1.2,1.7c0,0,2.8-0.9,4-1.7
		c0,0-0.7,1.8-1.6,1.8c0,0,1.4,0,3.3-1.2l-1,1.7l2-0.5L263.3,162.8z"/>
	<path class="st30" d="M232.5,164.2c0,0-0.2-2,2.7-3.6c2.9-1.6,10.2-4,19-10.5c0,0,9.7,0.3,15.6,4.5c0,0-4.4-1.2-12.2-1.7
		c0,0-2.4,0.2-4.6,1.6c-2.2,1.4-0.3,1.9-10.9,7.9C242.1,162.4,239.4,164.7,232.5,164.2z"/>
	<path class="st30" d="M223.6,170.7l-5.2-6.4c0,0-3.8-0.3-11.7-3.8c0,0-3.4-1.4-5.6-1.5c0,0-1.8,3.4-1.7,5.8c0,0,1.2-3.5,2.8-3.3
		c1.7,0.2,5.6,4,8.6,4.2l-0.5,0.9c0,0-3.7,0.3-4.3,1.3C206.2,167.9,215,167.3,223.6,170.7z"/>
	<path class="st30" d="M224.2,174.7c0,0-8-5.2-13.5-3.6l-1.6,1.3c0,0-1,1.5-2.1,0.7c0,0-0.5,0.5,1.4,1.6c0,0-1.7,0.6-3,0
		c0,0,1.4,2.5,2.9,3s1.6,1.2,1.6,1.2s0.7,1.6,3.3,1.9c0,0-1.8-1.6-2.5-3.4c0,0-0.8-2.5,3.1-2.6c3.8-0.1,9.9,1,9.9,1L224.2,174.7z"/>
	<path class="st30" d="M222.9,178.8c0,0-3.6,2.3-7.6,2.8h-2.1c0,0,0.7,1.1,2.6,1.1S223.5,180.7,222.9,178.8z"/>
	<path class="st30" d="M224.2,174.7c0,0,0.8,9.8-2.3,18.6"/>
	<path class="st30" d="M221,195.9c0,0,0.1,5.5,7.7,7.2c0,0,1.4-0.1,2.1,1.7c0,0,0.1-3-3.5-4.4C223.6,199,222.7,200.3,221,195.9z"/>
	<path class="st30" d="M230.7,198.7c0,0,3.6-3.2,7.1-1.9L230.7,198.7z"/>
	<path class="st30" d="M227.5,215.2c0,0-0.5,5,1.7,5.6c2.2,0.7,7.6,0.2,14.3-1.4c0,0,2.2-1.7,4.4-4.3s5.4-8.4,5.9-9.6s2-2.8,2-2.8
		s-1.7,0-4.1-1.2c0,0,1.1,1.5,1.9,2.1s-3,3-3,3l-10.6,0.4c0,0-6.1,1.3-7,3.5c0,0-6.6-1.1-8-0.2c0,0-0.2,1.8,0.8,2.5
		c1,0.7-3.5-1-3.5-1S224.5,215.1,227.5,215.2z"/>
	<path class="st31" d="M247.4,209.3c0,0-3.5-0.3-4.8,1.9c0,0,2.9,2.8,3.2,4.2C245.8,215.3,247,212.3,247.4,209.3z"/>
	<path class="st32" d="M232.1,223.4c0,0,4,2.3,7,2.3s5.9,0,5.9,0s-1.3-1.3-3.6-2.3C241.4,223.4,234.9,223.4,232.1,223.4z"/>
	<path class="st32" d="M277.7,191.7c0,0-3.5,21.5-6.4,25.5c-2.9,4-12.4,15.2-24.7,23.9c0,0,14.8-2.8,29.6-18.5
		S281.1,205,277.7,191.7"/>
	<line class="st33" x1="256.2" y1="242.3" x2="258" y2="250.1"/>
	<path class="st32" d="M257.8,251l9.3-3.3c2.2,0.1,7.7-24.9,8-29c0.3-4.4-2.2,10.1-2.2,10.1s-9.7,11.6-17.4,13.7c-7.7,2,0,0,0,0
		l2.1,7.1"/>
</g>
<g id="Eye_cover">
</g>
<g id="EYES">
	<path class="st34" d="M223.6,175.7c0,0-12-3.8-14.1,0.7c0,0,1.8,3.2,4.4,4.8c2.6,1.6,9.2-1.8,9.2-1.8L223.6,175.7z"/>
	<path class="st34" d="M244.9,171.9c0,0,0-9.5,17-7.1c0,0-0.8,3.5-2,4.8s-13.7,5.1-13.7,5.1L244.9,171.9z"/>
	<circle class="st35" cx="253.8" cy="168.2" r="2.9"/>
	<circle class="st35" cx="220.1" cy="177.5" r="2.9"/>
	<circle cx="220.1" cy="177.5" r="1.3"/>
	<circle cx="253.8" cy="168.2" r="1.4"/>
	<path class="st30" d="M219,174.6c0,0,2.8,0.6,3.2,0.7s0.5-0.9,0.5-0.9l-3.4-0.7l-0.8,0.5L219,174.6"/>
</g>
<g id="HAIR_BANG">
	<path class="st26" d="M316,121.7c0,0-8.7-16.7-13.2-21.8c0,0-3.8-3-11.8-2.8c0,0-2.8-8.3-21.6-9.8c-18.8-1.5-31,8.1-38.7,10.3
		c-7.7,2.3-9.2,2.4-11.3,2.4s-5.3-0.4-5.3-0.4s-54.1,41.9-18.7,61.7l3.4-4.4c0,0,3-1.1,5.9-0.9c0,0-7.8-5.8-5.6-22.1
		c0,0-0.4,13,9,21.4c0,0,9.1-5.5,33.5-5.3c0,0-2.3-2.7-3.6-6.2c0,0,3.5,4.3,8.7,5.9l4.3-0.2c0,0-5.9-3.4-8.7-15.9
		c0,0,4.9,10,15,15.6c0,0,8,0.1,11.9,1.2c0,0-6.9-4.1-8.4-13.4c0,0,6.2,11,12.5,13.6c0,0,15.9,59.6-13.1,111.6
		c0,0,23.9-8.6,28.4-25.2c4.5-16.6,8.3-67.6,0.3-87.3L316,121.7z"/>
</g>
<g id="BLUE_HILITE">
	<path class="st29" d="M203.1,112.9c0,0-17.2,9.9-18.4,31c0,0,2.5-9.8,4.2-12c0,0-0.5,4.2-0.2,6.6c0,0,1.1-5.1,1.8-7.9
		C190.5,130.6,192.5,119,203.1,112.9z"/>
	<path class="st29" d="M199.5,117.6c0,0-13.2,11.2-5.1,35.3C194.4,152.9,188.3,132.4,199.5,117.6z"/>
	<path class="st36" d="M201.8,143c0,0,0.3-7,1.7-9c0,0-0.5,5,0.8,6.6c0,0,1.2-5.5,1.8-6.7l0.8,5.5l0.6-6.9c0,0,0.3,4.6,1.1,7.3
		c0,0,0.4-5.9,1.7-10.3c0,0,2.1,6.9,2.8,8.8c0,0-3.6-11.5,2.8-21.1c0,0-4.5,6.6-6.5,9.6c0,0-0.4-2.2,1.1-8.4c0,0-2.1,2.5-3.8,9.3
		c0,0-1-3.2,2.2-16C209,111.7,199.2,131.7,201.8,143z"/>
	<path class="st36" d="M219.5,113c0,0-6.2,11.7-2.3,21.6c0,0-0.5-3,0.5-5c0,0,1.3,5.1,2.4,6.9c0,0-0.7-5.8,0-8.2
		c0,0,1.6,6.4,2.8,8.2c0,0-1-5.3-0.6-6.5c0,0,0.2,2.3,0.8,3.4c0,0-0.2-3.5,0.5-6.4c0,0,0.3,6.6,2.6,8.7c0,0-0.4-5,0-6.7
		c0,0,0.7,3.6,3.2,5.9c0,0,1-15.2,5.6-23.2c0,0-6.3,7.5-7.3,14.8c0,0-0.7-5.6-0.2-7.6c0,0-2.7,4.7-2.1,8.4c0,0-1-5.4,0-7.8
		c0,0-1.8,1.8-2.5,5.2c0,0-0.6-2.8,0.2-5.7c0,0-1.8,3.2-2.2,7c0,0-0.6-3.3,0-7.6c0,0-2.8,3.5-2.3,6.6
		C218.5,124.9,218.5,114.6,219.5,113z"/>
	<path class="st36" d="M233.7,119.3c0,0-0.9,6.3,0.7,9.8c0,0-0.6-7.8,2.6-11.8c0,0-0.2,1.1,0.5,3.6c0,0,0.1-2.4,1.6-3.6
		c0,0,0,2.7,0.4,3.8c0,0,0.5-2.6,1.2-3.8c0,0-0.3,8.6,6.4,19.3c0,0-2.3-9-2.3-14.6l0.8,3.3l0.2-3.8l1.7,7.7l0.8-6.1l0.4,4l0.9-3.3
		c0,0-0.8,6.5,1.4,10.9c0,0,0-7.7,1.2-9.5l1,2.4l0.8-4.6c0,0,0.3,3.5,2.5,7.8c0,0-0.5-7.5,0-11.5c0,0,1.3,3.8,2.8,5
		c0,0-0.5-4.4,0-5.8c0,0,1.9,6.9,4.6,9.7c0,0-0.4-2.7-1.1-6.7c0,0,3.7,3.5,5.8,7.4c0,0,1.1-3,0-8.7c0,0,1,0.6,1.7,1.6
		c0,0,0.8-1.6,0.8-4.7l5,9.9l-1.9-7.5l6.6,10.5l-2.7-8.1l5.3,8.2l-2-7.7l8.2,15c0,0-0.4-7.3-3.5-13c0,0,9.5,14.4,9.9,17.9l-7.9-22.1
		l-0.1,2.8l-5.9-8l2.8,9.3l-5.5-8.9l0.7,5.5l-5.5-8.3l2.1,7.9l-4.2-8.6l0.5,4c0,0-6.7-6.9-6.9-8.6c0,0,2.2,6.9,3.2,8.9
		c0,0-5-1.3-7.4-7.3c0,0,2,6.8,4.8,8.5c0,0-3.9-2.4-5.4-5.5c0,0,0.4,5,1.4,6.2c0,0-3.8-4.2-5-7.5c0,0-0.3,4-0.2,5.9
		c0,0-1.6-2.5-2.5-5.9c0,0-1.2,5.3-0.6,7.9c0,0-2.9-7.8-2.1-11.2c0,0-1.9,8.4-0.3,12.7l-2.2-3.4l0.6,4.7c0,0-3.1-3-3.1-7.9
		c0,0-0.9,5.1,0.1,6.4c0,0-2.5-5.5-2.1-8c0,0-0.8,2.6-0.8,6.4c0,0-2.2-5.9,0-14.2c0,0-3.7,2.8-4.1,8.5l-0.8-4.8c0,0-2.1,3-1.8,7.9
		l0.2-7.5l-3.4,7.8v-4.2L233.7,119.3z"/>
	<path class="st29" d="M203.6,188.7c0,0-5.2,21.1,3.5,45.7"/>
	<g>
		<path class="st29" d="M200.9,183.5c-1.4,7.5-2.2,15-2.4,22.5c-0.1,3.8,0.1,7.5,0.5,11.2c0.4,3.7,1.1,7.4,2.2,10.9
			c2.1,7.1,6.5,13.5,12.9,17.3c1.6,1,3.3,1.7,5,2.4c1.8,0.5,3.5,1.1,5.4,1.4l1.4,0.3l0.7,0.1l0.7,0.1l2.8,0.3
			c0.9,0.1,1.9,0.1,2.8,0.1l2.8,0.1c-3.8,0.4-7.6,0.6-11.4,0.1c-1.9-0.1-3.8-0.7-5.7-1.1c-1.8-0.7-3.7-1.3-5.4-2.3
			c-3.4-1.8-6.4-4.5-8.8-7.6c-2.4-3.1-4-6.7-5.2-10.4c-2.3-7.4-2.8-15.2-2.4-22.8C197.4,198.3,198.7,190.8,200.9,183.5z"/>
	</g>
	<path class="st29" d="M198.6,180.8c0,0-4,18.9-7.3,26.3c-3.3,7.4-14.4,49.2,8.6,74.4c0,0,6.8,7.6,18.5,3.7c0,0,9.1-5.7,10.7-16.1
		c0,0-3.8,9.7-9.9,13.5s-23.5-1.3-26.7-17.6c0,0,3.4,7.8,5.1,7.4c0,0-6.8-12.8-7.6-22.2c-0.7-9.4-1.1-12-0.7-20
		c0,0,1.2-13.7,3.5-16.9c0,0-2.8,41.6,17.2,49.2c0,0-9-7.4-11.5-17.6c0,0,4.5,11.2,13.3,13.5c0,0-17.3-20.9-17.1-41.9
		c0,0,4.5,19.3,9.1,25.9C203.9,242.3,195.1,214.6,198.6,180.8z"/>
	<g>
		<path class="st29" d="M219.3,288.9c0,3.2-0.5,6.4-1.3,9.6c-0.9,3.1-2.2,6.2-4.3,8.8c-2,2.6-4.8,4.9-8.2,5.7
			c-1.7,0.4-3.3,0.6-5,0.4c-0.8,0-1.6-0.2-2.5-0.3c-0.8-0.2-1.6-0.4-2.4-0.7l0-0.2c3.2,0,6.4-0.2,9.2-1.2c2.8-1,5.5-2.5,7.5-4.8
			c2-2.3,3.5-5.1,4.5-8.1c1.1-3,1.8-6.1,2.1-9.3L219.3,288.9z"/>
	</g>
	<g>
		<path class="st29" d="M211.5,310.8c-0.3,1.5-1.6,2.8-2.9,3.5c-1.4,0.7-3,1.1-4.5,1.2c-0.8,0-1.6,0-2.3,0c-0.8-0.1-1.5-0.1-2.3-0.3
			c-0.7-0.2-1.5-0.3-2.2-0.5c-0.7-0.3-1.5-0.5-2.2-0.8c1.5,0.2,3,0.4,4.5,0.5c1.5,0.1,3,0.2,4.4,0.1c1.5-0.1,2.9-0.3,4.3-0.9
			C209.5,313,210.8,312.1,211.5,310.8z"/>
	</g>
	<g>
		<path class="st29" d="M277.7,157.2c1.7,7.3,3.1,14.6,4.1,22c1,7.4,1.6,14.9,1.7,22.4c0,3.8,0,7.5-0.2,11.3
			c-0.3,3.8-0.8,7.5-1.7,11.2c-0.9,3.7-2.1,7.3-3.8,10.8c-1.7,3.4-3.9,6.6-6.7,9.2l-0.2-0.2c4.2-6.2,6.4-13.2,7.8-20.4
			c1.3-7.2,2.3-14.5,2.4-21.9c0.2-7.4-0.1-14.8-0.8-22.2c-0.6-7.4-1.5-14.8-2.9-22.1L277.7,157.2z"/>
	</g>
	<g>
		<path class="st29" d="M284.1,180.8c0.8,4.4,1.4,8.8,1.8,13.3c0.5,4.4,0.7,8.9,0.8,13.4c0.1,4.5,0,9-0.5,13.4
			c-0.3,2.2-0.6,4.4-1.2,6.6c-0.6,2.1-1.4,4.3-2.8,6.1c1.2-1.9,1.8-4,2.3-6.2c0.5-2.2,0.7-4.4,0.9-6.6c0.3-4.4,0.4-8.9,0.3-13.3
			c-0.1-4.4-0.3-8.9-0.6-13.3c-0.1-2.2-0.3-4.4-0.5-6.7C284.5,185.2,284.3,183,284.1,180.8z"/>
	</g>
</g>
<g id="EAR_OUTLINE">
	<g>
		<g>
			<path d="M306,159.4c-1.3,1.2-2.6,2.5-3.8,3.8c-2.3,2.5-4.5,5.1-6.2,8c-0.4,0.6,1.1,0.5,1.4,0.1c1.7-2.9,3.9-5.4,6.2-7.9
				c1.2-1.3,2.4-2.5,3.7-3.7c0.2-0.2,0.1-0.5-0.1-0.5C306.7,159.1,306.2,159.2,306,159.4L306,159.4z"/>
		</g>
	</g>
	<g>
		<path d="M306.6,165.4c-0.6-0.2-1-0.3-1.3-0.3c-0.3,0-0.6,0-1,0c-0.3,0-0.7,0-1.1-0.1c-0.4,0-0.9-0.1-1.5-0.3
			c0.3-0.6,0.7-0.9,1.1-1.2c0.5-0.3,1-0.4,1.6-0.4c0.6,0,1.2,0.2,1.7,0.7C306.4,164.2,306.7,164.8,306.6,165.4z"/>
	</g>
	<g>
		<g>
			<path d="M295.6,173.8c-0.2,1.8-0.1,4.1,1.1,5.6c0-0.1,0-0.2-0.1-0.3c-0.1,1.4-0.6,3.6-2.1,4.1c-0.3,0.1-0.7,0.3-0.6,0.7
				c0.1,0.3,0.6,0.4,0.9,0.3c1.9-0.6,2.8-2.3,3.2-4.2c0.1-0.4,0.2-1,0-1.3c-0.6-0.9-0.8-1.9-0.9-3c-0.1-0.7-0.1-1.4,0-2
				C297.2,173,295.7,173.2,295.6,173.8L295.6,173.8z"/>
		</g>
	</g>
	<g>
		<path d="M300.4,169.3c0.8,0.9,1.5,1.6,2.2,2.1c0.4,0.2,0.7,0.6,1.2,0.8c0.2,0.2,0.5,0.2,0.7,0.4c0.3,0.1,0.5,0.1,0.8,0.1l0.1,0
			l0.1,0.1c0.3,0.2,0.6,0.5,0.9,0.7c0.3,0.3,0.6,0.6,0.8,0.9c0.2,0.4,0.4,0.8,0.4,1.2c0.1,0.5,0,0.9-0.2,1.4l0,0l-0.1,0.2
			c-0.6,0.9-1.2,1.6-2.1,2.3c-0.4,0.3-0.9,0.6-1.3,0.9c-0.5,0.2-1,0.5-1.6,0.5l-0.1-0.2c0.6-0.9,1.1-1.7,1.7-2.5
			c0.3-0.4,0.6-0.8,0.9-1.1c0.3-0.4,0.7-0.7,1-1l-0.2,0.3c0.2-0.4,0.3-0.8,0.3-1.4c0-0.3-0.1-0.6-0.2-0.9c-0.1-0.3-0.3-0.6-0.6-0.7
			l0.2,0.1c-0.6,0-1.2,0.1-1.8,0.1c-0.7,0-1.4-0.1-1.9-0.6c-0.6-0.4-1-1-1.2-1.6c-0.3-0.6-0.3-1.3-0.2-1.9L300.4,169.3z"/>
	</g>
	<g>
		<path d="M305.8,181.3c-0.5,0.7-1.1,1.4-1.7,2c-0.3,0.3-0.6,0.7-1,0.9c-0.4,0.2-1,0.3-1.5,0l0-0.1c0.4-0.3,0.6-0.5,0.9-0.8
			c0.3-0.3,0.7-0.4,1.1-0.6C304.3,182.2,305,181.7,305.8,181.3L305.8,181.3z"/>
	</g>
</g>
<g id="SLEEVE_DETAILS">
	<path class="st18" d="M252.1,396.6c0,0,25.3-8.2,34.1-21.7c0,0,2.4-8,8-6c5.6,2-10.4,13.7-10.4,13.7S277.6,387.5,252.1,396.6z"/>
	<path class="st18" d="M249.2,396.6l-2.7-1.1c0,0-1.3-0.8,0-3.3c0,0-3.9-6.4-4.3-8.9s2.5-7.8,2.5-7.8s5.7-11.3,8.9-14.6
		c0,0,3-0.6,4.1,0c0,0,23.3-18.9,26.7-23.7c3.4-4.9-1.7,9.3-18.3,26.3l11.6-9.1c0,0-7.8,13.3-13.1,17c-5.2,3.7,14.4-11.8,14.4-11.8
		s-8.6,14.7-14.2,17.2c-5.6,2.4,13.6-9.5,13.6-9.5S274.5,376,249.2,396.6z"/>
	<path class="st18" d="M248.9,403.3c0,0-1.4-1.9,3.2-3c4.7-1.1,8.2,0.2,11.6-3.7c0,0,7.4-1.9,8.1,1.9s-10.5,7.9-10.5,7.9
		s20.3-5.9,24-10.3c0,0-7.1,10.5-24.5,14.6C260.9,410.8,256.8,409.9,248.9,403.3z"/>
	<path class="st18" d="M246.8,330.6c0,0-12.2-39.6,19.4-65.7c0,0,2.8-1.2-2.8,5.8c-5.5,7-12.3,14-6.7,50.2l4.2-3l-2.9,5.8l4.5-3.7
		l-1.6,7.2l3.5-3.7c0,0-3.8,9.3-5.8,10.6c0,0,3.6-2.1,6.1-5.2c0,0-2.1,9.3-5.2,12.1c0,0,6.3-3.1,8.1-6.7c1.7-3.5-3.4,12.7-11.6,21.5
		c-8.2,8.8-8.7,10.5-8.7,10.5s-2.3,0.9-3-6.5C243.8,352.7,246.8,330.6,246.8,330.6z"/>
	<path class="st18" d="M319.7,321.7c0,0-1.3-29.7-9.5-42.6c0,0,16.5,28.4,16,34.2c0,0-0.4-7-1.1-9.5c-0.7-2.5,3.6,7.5,3.4,8.6
		c-0.2,1.1,0.4-0.4,0-5.1c-0.4-4.7,3,6.6,3,6.6s-0.1-5,0-6.4c0.1-1.4,7.4,12.5,8.2,14.3C339.7,321.7,328.6,322.1,319.7,321.7z"/>
	<path class="st18" d="M315.2,364.5c0,0,12.3-12.8,12.7-16.2c0.4-3.4,0-4.6,0-4.6s-3.5,6-5.4,6.8c0,0,1.2-2.3,1.4-6.2
		c0.1-3.9-2.2,3-2.2,3s-3.1,2.4-5.1,3.1c0,0,4.3-7.8,2.6-12.6c0,0-0.8,2.7-1.5,3.7s0.3-2.6-0.1-5.1c-0.4-2.5-2.8,10.1-5,12.8
		c0,0,0.7-12.6,0-18.1s-2.2,53.3-11.4,81.1c-9.1,27.8-3,30.7-17.8,58.3c0,0-1.5,3.8-26.5,4.7c0,0-22.2,0.3-28.3-5
		c0,0,0.7,16.9,5.2,24.5c0,0,0.4-2.2,3.1,0.7c2.7,2.9,8.3,6.9,15.7,8.1c0,0-6.2-16.2-6.7-23.4c0,0,0.9-2.3,2.2,0.6
		c0,0,1,6.3,4.5,2.2c0,0,0.4-2.7,3.5,1.2c3,3.9,11.7,9.9,11.7,9.9s4.1,2.3,1.3-1.1l-4.4-3.5c0,0,1.9-1.1,5.5,0.3
		c0,0,1.5-0.6,0.4-1.6c-1.1-1-1.9-2.5,0.5-1.9c2.5,0.5,1.9-1.4,1.9-1.4s-1.9-2.4-4-3.9c-2.1-1.5,7.6,4.2,8.7,5.5
		c1.1,1.3,9.1,1.5,9.1,1.5s2.2,0,0.1-2s-7.8-6-7.8-6l8,3.5c0,0-4.3-5.3-5.9-6.7c-1.6-1.4,7.6,2.4,7.6,2.4s5.3,0.1,4.9-1.8
		s-5.5-2.1-5.5-2.1s-3.3-2.8-0.3-4.2c0,0-1.2,2.3,0.7,2.7c1.9,0.4,4.8-2.2,9.2-7.9c4.4-5.7,26.6-43.7,26.8-48.8
		c0,0-13.4,20.8-16.9,25c0,0,14.3-23.4,14.7-27.7c0,0-6.8,10.6-10.4,14.3c0,0,9.4-17.4,18.4-29.7l-6,4.9c0,0,5.3-8.8,8.9-12.6
		c0,0-5.3,3.3-5.8,4.9c0,0,6.3-9.9,9.8-13.4s-10.3,10.6-10.3,10.6s5-10.2,7.8-12.9c0,0-4.6,3.9-6.7,8.1c0,0,0.6-3.6,2.1-6.7
		c0,0-11,12.2-12.7,16.1c0,0,4.5-10.9,6.7-14.4c0,0-8.3,7.9-11,12.6c0,0,4-8.3,4.2-12.1c0,0-2.9,4.1-5.6,5.8c0,0,3.3-4.8,3.2-7
		c0,0-3.3,4.3-4.7,4.9c0,0,1.9-10.5,1.9-13.9c0,0,1.6,2,3.8,1.2c2.2-0.8,10.6-13.3,12.2-16.6c0,0,0.5-1.9,0.1-4.1
		c0,0-6.6,8.9-10.5,10.3C313.6,366.2,315.2,364.5,315.2,364.5z"/>
	<path class="st18" d="M254.7,414c0,0-2.4-4.4-5-7c-2.6-2.7-6.8-0.6-6.8-0.6s-4.6,1.9-2.9,7.7c0,0,2,2.3,2.1,3.8s-0.6,4-0.6,4
		s0.2,2.1,1.4,2.9s2.4,5.7,5.7,5.2c3.4-0.5,14.5,0.6,14.5,0.6s8.1,1.7,9.4-0.4c1.2-2.1-1.9-1.2-1.9-1.2s-12.9,1.6-18.6-3.6
		c0,0-1.6-1.5-0.5-2.2c0,0,5.6,1.2,8.7,0.1c3-1.1,11.9,2,11.9,2s7.4-0.5,7.1-2.6s-4.9-3.2-4.9-3.2s-7.4-0.2-11.4,0.5
		c-4,0.7-5.6,0.7-5.6,0.7s0.4-1.9,0-2.2c-0.4-0.3-2.2-1-2.2-1s1.5-1.4,3.5-1.5c2-0.1,2.5-1.2,2.5-1.2s13.7-1.5,16.3-3.4
		c2.6-1.9,4.5-2.8,4.5-2.8s4.5-2.9,1.3-3c-3.2-0.1-15.3,4.7-15.3,4.7S256.3,413.8,254.7,414z"/>
	<path class="st18" d="M252.7,432.6c0,0,7.8,5.4,12.8,6.5c5.1,1.2,7.5,2.2,7.5,2.2s10.5-0.4,7.3-2.4c-3.2-2-11.4-4.2-11.4-4.2
		l-7.6-2.1C261.3,432.6,254.2,432.8,252.7,432.6z"/>
	<path class="st18" d="M234.8,496.7c0,0-0.1,13.3,2,14.1c2.2,0.8,8,1.6,11.9-1.4c0,0,0.9-2,0-3.3c0,0-6.2,0.1-8.6-0.9
		C237.7,504.2,234.8,496.7,234.8,496.7z"/>
	<path class="st18" d="M251.6,486.7c0,0,0.3,12.4,1.9,14.7s8.6,2.7,11.3,2s4.7-5,4.7-5l-13.8-11.6
		C255.6,486.7,252.7,484.5,251.6,486.7z"/>
	<path class="st18" d="M272.2,494.7c0,0,1,4.3,7,2c6-2.3,4.6-3.2,9.2-4.1c0,0,2-1.3,1.9-2.8c0,0-4.7,0.5-6.2,0.8
		c-1.5,0.3-4.8,0-4.8,0L272.2,494.7z"/>
	<path class="st18" d="M236.1,422.2c0,0-10.8,3.7-13.6,5.2c0,0,2.9,0.2,4.1,0.8c0,0,0.6,4.9,0.1,6c0,0-1.2-3.9-3-4.5
		c0,0,0.8,3.7,0.5,4.5c0,0-1.5-1.1-2.3-1.3c0,0,2.8,3.6,2.4,4.5c-0.4,0.9-4.5-2.5-4.5-2.5s0.6,5.5,5.9,9.9c5.3,4.4,6.4,2.4,9.2,2.8
		c0,0,2.6,2.1,4.5,1.8c0,0-5.2-3.9-6.5-16.1c0,0,5.8,10,8.8,12.6c0,0-0.9-2.4-1.5-4.6c0,0,4.3,5.6,7.3,7.8c3,2.2,6.8,4.7,9.8,4.8
		c0,0,1.2-0.6,0.7-3.5c-0.5-2.8,3.5,2.9,3.5,2.9s6.4,0.9,3-3.2c-3.3-4-17.5-21.2-24.7-24c0,0-0.4,3,2.9,9.3c0,0-3.2-1.5-4.3-5.5
		c0,0-1.3,1.8-1,3S234,425.6,236.1,422.2z"/>
	<path class="st18" d="M320,482.1c0,0,7.2,10,7.6,11.3c0,0,10.7-7.5,14.5-10.1c3.8-2.6-8.4,1.6-8.4,1.6s4.7-5.8,10.1-6.4s4,0,4,0
		s5.6-1.4,0.1-3S327,478.8,320,482.1z"/>
	<path class="st18" d="M283.1,465.3c0,0-4.9,0.4-7.7,0C275.4,465.3,278.7,468.7,283.1,465.3z"/>
	<path class="st18" d="M279.3,469.4c0,0-6.8-1.3-10.3-3.8c0,0,1.2,2,2.8,2.8s-6.9,0.2-9.5-2.8c0,0-0.5,0.4,0,1.9
		c0,0-3.5,0.1-7.5-3.1c0,0-0.1,1.2,0.5,2.4c0,0-4.4-0.9-9.8-4.9c0,0,0.2,2.9,1.9,3.8c0,0-2-0.3-4.8-3c0,0,0.5,3.9,2.5,5.4
		c0,0-7.7-4.8-8.2-7.2c0,0-0.7,2.5,0.5,3.5c0,0-6.1-1.6-6.3-4.3c0,0,0.6-1.3,3.8-0.8c3.2,0.4,0.5-1.7,0.5-1.7s-15.6-11.2-19.4-12
		c0,0,0.7,1.5,0.5,2c-0.2,0.5-11.9-6.4-16.1-13c0,0,1.7,4.8,4.2,6.7l-3.2-1.2l0.4,1.3c0,0-2.8-0.7-5.4-2.3c0,0,0,2.5,1.1,3.4
		c0,0-3.6-2.1-9-5.8c0,0,0,6.1,14.7,15.4l7.9,5.4c0,0-8.4-2.8-15.6-8.9c-7.2-6.1-12-7.2-12-7.2s0.8,2.8,3.8,4.5l0.3,1.2l-3.1-1.6
		c0,0-0.3,3.6,1.3,5.1c1.6,1.6,4.4,5.1,4.4,5.1s-5.2-3.1-7.4-5.2c0,0,0.3,3.4,1.3,3.6c1,0.2-4.1,0.6-4.7-2s0.4-6.8,0.4-6.8
		s0-7.3-0.6-8c-0.6-0.7,1-4.6,2.2-4.5c1.2,0.2-2.3,0-2.3,0l0.5-3.5c0,0-11.5,8.4-6.4,32.4c0,0-11.2-5,2.4-30.4
		c0,0-19.3,22.5,1.8,45.7c0,0,38.9-0.8,47-2C224.4,475,275.4,473.6,279.3,469.4z"/>
	<g>
		<path class="st18" d="M268.9,258.1c8.3-0.5,16.7,1.8,23.8,6.2c7.2,4.4,12.9,11.1,16.6,18.6c3.7,7.5,5.8,15.8,6.7,24
			c0.9,8.3,0.7,16.6-0.1,24.8c0.1-8.3-0.3-16.5-1.4-24.6c-0.1-1-0.4-2-0.5-3c-0.2-1-0.3-2-0.6-3l-0.7-3l-0.4-1.5l-0.4-1.5l-0.9-2.9
			l-1-2.9c-0.3-1-0.7-1.9-1.2-2.8c-0.4-0.9-0.8-1.9-1.3-2.8c-3.6-7.3-8.9-13.7-15.6-18.2c-3.4-2.3-7.1-4-10.9-5.3
			C277.1,259,273.1,258.2,268.9,258.1z"/>
	</g>
	<path class="st14" d="M318.5,333.1c0,0,1.9-8.4,4.6-9.1c0,0,21.8,0.7,28.2,2.8c0,0-23.3-2.2-27.9-0.9L318.5,333.1z"/>
	<g>
		<path class="st18" d="M293.2,489.8c4.3-2.7,8.8-5.1,13.4-7.1c2.3-1,4.7-1.8,7.1-2.7l7.1-2.8c4.7-1.8,9.6-3.3,14.6-4.2
			c2.5-0.4,5.1-0.7,7.6-0.7c2.5,0,5.1,0.2,7.5,0.9l0,0.1c-5-0.7-10-0.2-14.9,0.7c-2.5,0.5-4.9,1-7.3,1.6c-2.4,0.6-4.8,1.3-7.3,2
			c-2.4,0.7-4.8,1.6-7.1,2.5c-2.3,1-4.6,2.1-6.9,3.2L293.2,489.8L293.2,489.8z"/>
	</g>
	<g>
		<g>
			<path class="st18" d="M222.9,475c3.1,11.3,6.2,22.6,8.4,34.1c0.4,2.3,1.2,5,0.9,7.3c-0.1,0.7,1.2,0.6,1.6,0.5
				c11.5-3.5,22.9-7.1,34.4-10.6c6-1.9,11.9-4,17.5-6.7c5.5-2.7,10.6-6.3,16.1-9c4.8-2.4,9.9-4.4,15-6.2c7.3-2.6,14.6-5,22.1-6.9
				c0.4-0.1,1.4-0.5,1.3-1c-0.2-0.6-1.3-0.4-1.6-0.3c-6.3,1.6-12.5,3.6-18.6,5.7c-5.2,1.8-10.3,3.7-15.3,5.9c-2.3,1-4.5,2.1-6.7,3.2
				c-2.6,1.4-5.1,3.1-7.7,4.6c-6.8,3.9-14,6.9-21.5,9.2c-5.9,1.8-11.7,3.6-17.6,5.4c-5.9,1.8-11.8,3.6-17.8,5.5
				c0.5,0.2,1.1,0.3,1.6,0.5c0.2-2-0.3-4.2-0.7-6.2c-0.6-3.4-1.4-6.8-2.2-10.2c-1.6-6.9-3.4-13.8-5.2-20.7c-0.4-1.5-0.8-3.1-1.2-4.6
				C225.6,473.3,222.7,474.1,222.9,475L222.9,475z"/>
		</g>
	</g>
	<g>
		<path class="st18" d="M330.6,496.6c2.5-1,5-2.3,7.3-3.7c2.3-1.5,4.5-3.1,6.6-4.8c2.1-1.7,4.1-3.5,6.1-5.4c2-1.9,3.9-3.8,5.6-5.9
			l0,0.4c-1.9-2.7-3.6-5.6-5.1-8.5c-0.7-1.5-1.4-3-2-4.5c-0.3-0.8-0.6-1.5-0.9-2.3c-0.3-0.8-0.6-1.5-0.9-2.3c-1.1-3.1-2-6.3-2.8-9.5
			c-0.8-3.2-1.4-6.5-1.9-9.7c-1-6.5-1.4-13.1-1.5-19.7c-0.1-6.6,0.2-13.2,1-19.8l0-0.1l0-0.1c1.7-4.4,3.2-8.9,4.3-13.5
			c1.2-4.6,2.1-9.2,2.8-13.9c0.7-4.7,1.2-9.4,1.6-14.1c0.3-4.7,0.5-9.5,0.4-14.2l0.2,0c0.4,4.8,0.3,9.5,0.2,14.3
			c-0.2,4.8-0.5,9.5-1.1,14.3c-1.2,9.5-3.3,18.9-6.6,27.9l0.1-0.2c-0.6,6.4-0.9,13-0.8,19.5c0,6.5,0.4,13,1.2,19.5
			c0.8,6.5,2,12.9,3.9,19.2c1.9,6.2,4.7,12.3,8.5,17.5l0.1,0.2l-0.1,0.2c-1.6,2.3-3.3,4.5-5.1,6.5c-1.8,2.1-3.8,4-6,5.8
			c-2.2,1.7-4.5,3.3-7,4.6c-1.2,0.6-2.5,1.2-3.8,1.7c-1.3,0.5-2.7,0.9-4,1.1L330.6,496.6z"/>
	</g>
	<path class="st14" d="M292.8,255c0,0,14.8-7.9,30.2-8.7l4.2,9.4l-3.3-3.6c0,0-3.6-1.9-13.9-1.1c0,0,9.7,2.3,11.1,4.7
		c0,0-14.2-1.7-22.4-1.2c0,0,3.3,2.2,5.7,5.5c0,0-6.7-4.7-33.6-4.5c0,0,12.7-6.8,19.8-13.9c1.8-1.8,3.2-3.6,4-5.4l-2.1,7.5l4.8-5.3
		l-4.8,8.7l6.5-4.2l-5.1,6.1c0,0,13.3-3,18.2-3.7C312.1,245.4,295.6,250.5,292.8,255z"/>
	<g>
		<path class="st18" d="M232.2,278.3c-4.1,12-8,24.2-11.5,36.4c-1.8,6.1-3.5,12.2-4.9,18.4c-0.4,1.5-0.7,3.1-1.1,4.6l-0.5,2.3
			l-0.4,2.3c-0.3,1.6-0.6,3.1-0.8,4.7l-0.3,2.3c-0.1,0.8-0.1,1.6-0.2,2.3c0,0.8-0.1,1.6-0.1,2.3l0,2.4c0,1.6,0.1,3.2,0.2,4.7
			c0.2,3.2,0.5,6.3,0.8,9.5c0.3,3.2,0.6,6.3,0.9,9.5c0.3,3.2,0.6,6.3,1,9.5c1.3,12.7,2.8,25.3,4,38l-0.2,0
			c-2.4-12.5-4.2-25.1-5.8-37.8c-0.4-3.2-0.7-6.3-1.1-9.5c-0.3-3.2-0.6-6.3-0.8-9.5c-0.2-3.2-0.4-6.4-0.6-9.6c0-1.6-0.2-3.2-0.1-4.8
			l0-2.4c0-0.8,0.1-1.6,0.2-2.4c0.1-0.8,0.1-1.6,0.2-2.4l0.4-2.4c0.2-1.6,0.5-3.2,0.9-4.7l0.5-2.4l0.5-2.3c0.4-1.5,0.7-3.1,1.1-4.7
			c1.6-6.2,3.4-12.3,5.2-18.4c3.8-12.2,7.9-24.2,12.3-36.2L232.2,278.3z"/>
	</g>
</g>
<g id="PINKHILITE">
	<path class="st37" d="M289.3,115.3c0,0,7.1,13.2,7.4,18.4c0,0,0.6-4.1-0.6-9.2c0,0,5.2,9.6,6.7,14c0,0-2.1-9.8-2.5-11.6
		c0,0,5.3,11.2,5.4,13.3c0.2,2.1,0,0,0,0s0.6-7.8-1.2-13.1c-1.8-5.3,0,0,0,0s10.4,28,10.4,32.4c0,0-1.7-18.3-4-24.8
		c0,0,13.1,39.3,12.9,41.3l-1.4-13.8l2.5,9.2c0,0,17.1,16.3,20.6,19.3c3.5,3-0.6-2.7-0.6-2.7l-7.7-12.8c0,0-11.4-24.1-12.4-30.6
		c-1.1-6.5-2.1-25.7-15.7-40.2c0,0-6.2-4.8-9.3-5.7c0,0,12.2,13.4,15.3,24.2c0,0-6-8.5-10.1-11.3c0,0,5.8,12.8,6.5,16.9
		c0,0-8.4-15.9-10.6-17.7l2.9,6.6l-3.7-4.2c0,0,2.4,8.2,2.1,9.4c0,0-5.3-12.3-8.2-15.6c0,0,4.3,11.3,4.2,15.7l0.2,1.3L289.3,115.3z"
		/>
	<path class="st36" d="M336.5,177.5c0,0,43.2,47.3,27,75.8c0,0,13.2,28-4.4,39.4c0,0,15.1,18.1,32.2,1.1c0,0-1.6,6.2-5.9,11.2
		c-2.1,2.4-4.8,4.5-8.3,5.5c0,0,7-1.4,9.4-4.8c0,0-7.5,15.6-29.4,1.8c0,0,5.8,4.5,14.4,2.3c0,0-12.4-1.7-16.2-12.3l-0.5-1.4
		c0,0-8.6,4.1-12.6,3.3c0,0,7.7-1.1,12-5.9c0,0-9.1,6.7-17.5,2.8c0,0,11.6,0.9,18.3-11.1c0,0-7.6,11.4-24.2,4
		c0,0,28.6,4.8,27.8-21.5l-1.4-14.4c0,0,3.8-26.3,0-33.2c0,0,1.1,16.8-4.3,30.3c0,0,6.7-31.8-7-48.2c0,0,9.5,8.9,8.8,15.7
		C354.5,218,355.9,201.8,336.5,177.5z"/>
	<path class="st36" d="M358.6,246.3c0,0,0.6,11.3-17.4,27.4C341.3,273.7,358.8,266.1,358.6,246.3z"/>
	<path class="st36" d="M289.3,147.8c0,0,10.2,51.6-3.7,83.8c0,0,2.6-14.7,3.7-26.3c0,0-4.4,30.3-11.7,38.5c0,0,13.3-37.9,11.7-52
		c0,0-2.4,13.2-4.1,17.4c0,0,3.4-26.6,2.5-36.2c-0.9-9.7-1.9-15.2-3.4-20.8c0,0,4.3,6.6,6.1,20.6L289.3,147.8z"/>
</g>
</svg>
